<svg width="64" height="64" viewBox="0 0 64 64" fill="none" xmlns="http://www.w3.org/2000/svg">
<path d="M32.1601 22.37C32.0601 22.36 31.9401 22.36 31.8301 22.37C29.4501 22.29 27.5601 20.34 27.5601 17.94C27.5601 15.49 29.5401 13.5 32.0001 13.5C34.4501 13.5 36.4401 15.49 36.4401 17.94C36.4301 20.34 34.5401 22.29 32.1601 22.37Z" stroke="#5E7F87" stroke-width="1.5" stroke-linecap="round" stroke-linejoin="round"/>
<path d="M27.1602 26.06C24.7402 27.68 24.7402 30.32 27.1602 31.93C29.9102 33.77 34.4202 33.77 37.1702 31.93C39.5902 30.31 39.5902 27.67 37.1702 26.06C34.4302 24.23 29.9202 24.23 27.1602 26.06Z" stroke="#5E7F87" stroke-width="1.5" stroke-linecap="round" stroke-linejoin="round"/>
<path d="M14.335 46.674H10.837L10.166 48.5H9.352L12.157 40.91H13.026L15.82 48.5H15.006L14.335 46.674ZM14.104 46.036L12.586 41.878L11.068 46.036H14.104ZM16.7038 45.497C16.7038 44.8737 16.8284 44.331 17.0778 43.869C17.3271 43.3997 17.6718 43.0403 18.1118 42.791C18.5518 42.5343 19.0541 42.406 19.6188 42.406C20.3594 42.406 20.9681 42.5893 21.4448 42.956C21.9288 43.3227 22.2404 43.8213 22.3798 44.452H21.5548C21.4521 44.0193 21.2284 43.682 20.8838 43.44C20.5464 43.1907 20.1248 43.066 19.6188 43.066C19.2154 43.066 18.8524 43.1577 18.5298 43.341C18.2071 43.5243 17.9504 43.7993 17.7598 44.166C17.5764 44.5253 17.4848 44.969 17.4848 45.497C17.4848 46.025 17.5764 46.4723 17.7598 46.839C17.9504 47.2057 18.2071 47.4807 18.5298 47.664C18.8524 47.8473 19.2154 47.939 19.6188 47.939C20.1248 47.939 20.5464 47.818 20.8838 47.576C21.2284 47.3267 21.4521 46.982 21.5548 46.542H22.3798C22.2404 47.158 21.9288 47.653 21.4448 48.027C20.9608 48.401 20.3521 48.588 19.6188 48.588C19.0541 48.588 18.5518 48.4633 18.1118 48.214C17.6718 47.9573 17.3271 47.598 17.0778 47.136C16.8284 46.6667 16.7038 46.1203 16.7038 45.497ZM23.4499 45.497C23.4499 44.8737 23.5745 44.331 23.8239 43.869C24.0732 43.3997 24.4179 43.0403 24.8579 42.791C25.2979 42.5343 25.8002 42.406 26.3649 42.406C27.1055 42.406 27.7142 42.5893 28.1909 42.956C28.6749 43.3227 28.9865 43.8213 29.1259 44.452H28.3009C28.1982 44.0193 27.9745 43.682 27.6299 43.44C27.2925 43.1907 26.8709 43.066 26.3649 43.066C25.9615 43.066 25.5985 43.1577 25.2759 43.341C24.9532 43.5243 24.6965 43.7993 24.5059 44.166C24.3225 44.5253 24.2309 44.969 24.2309 45.497C24.2309 46.025 24.3225 46.4723 24.5059 46.839C24.6965 47.2057 24.9532 47.4807 25.2759 47.664C25.5985 47.8473 25.9615 47.939 26.3649 47.939C26.8709 47.939 27.2925 47.818 27.6299 47.576C27.9745 47.3267 28.1982 46.982 28.3009 46.542H29.1259C28.9865 47.158 28.6749 47.653 28.1909 48.027C27.7069 48.401 27.0982 48.588 26.3649 48.588C25.8002 48.588 25.2979 48.4633 24.8579 48.214C24.4179 47.9573 24.0732 47.598 23.8239 47.136C23.5745 46.6667 23.4499 46.1203 23.4499 45.497ZM33.177 48.588C32.6123 48.588 32.1026 48.4633 31.648 48.214C31.2006 47.9573 30.845 47.598 30.581 47.136C30.3243 46.6667 30.196 46.1203 30.196 45.497C30.196 44.8737 30.328 44.331 30.592 43.869C30.856 43.3997 31.2153 43.0403 31.67 42.791C32.1246 42.5343 32.6343 42.406 33.199 42.406C33.7636 42.406 34.2733 42.5343 34.728 42.791C35.19 43.0403 35.5493 43.3997 35.806 43.869C36.07 44.331 36.202 44.8737 36.202 45.497C36.202 46.113 36.07 46.6557 35.806 47.125C35.542 47.5943 35.179 47.9573 34.717 48.214C34.255 48.4633 33.7416 48.588 33.177 48.588ZM33.177 47.917C33.573 47.917 33.9396 47.829 34.277 47.653C34.6143 47.4697 34.8856 47.1983 35.091 46.839C35.3036 46.4723 35.41 46.025 35.41 45.497C35.41 44.969 35.3073 44.5253 35.102 44.166C34.8966 43.7993 34.6253 43.528 34.288 43.352C33.9506 43.1687 33.584 43.077 33.188 43.077C32.792 43.077 32.4253 43.1687 32.088 43.352C31.7506 43.528 31.4793 43.7993 31.274 44.166C31.076 44.5253 30.977 44.969 30.977 45.497C30.977 46.025 31.076 46.4723 31.274 46.839C31.4793 47.1983 31.747 47.4697 32.077 47.653C32.4143 47.829 32.781 47.917 33.177 47.917ZM42.8086 42.494V48.5H42.0386V47.444C41.8626 47.818 41.5913 48.104 41.2246 48.302C40.8579 48.5 40.4473 48.599 39.9926 48.599C39.2739 48.599 38.6873 48.379 38.2326 47.939C37.7779 47.4917 37.5506 46.8463 37.5506 46.003V42.494H38.3096V45.915C38.3096 46.5677 38.4709 47.0663 38.7936 47.411C39.1236 47.7557 39.5709 47.928 40.1356 47.928C40.7149 47.928 41.1769 47.7447 41.5216 47.378C41.8663 47.0113 42.0386 46.4723 42.0386 45.761V42.494H42.8086ZM47.3825 42.384C48.1012 42.384 48.6879 42.6077 49.1425 43.055C49.5972 43.495 49.8245 44.1367 49.8245 44.98V48.5H49.0655V45.068C49.0655 44.4153 48.9005 43.9167 48.5705 43.572C48.2479 43.2273 47.8042 43.055 47.2395 43.055C46.6602 43.055 46.1982 43.2383 45.8535 43.605C45.5089 43.9717 45.3365 44.5107 45.3365 45.222V48.5H44.5665V42.494H45.3365V43.517C45.5272 43.1503 45.8022 42.8717 46.1615 42.681C46.5209 42.483 46.9279 42.384 47.3825 42.384ZM52.5285 43.143V46.872C52.5285 47.2387 52.5981 47.4917 52.7375 47.631C52.8768 47.7703 53.1225 47.84 53.4745 47.84H54.1785V48.5H53.3535C52.8108 48.5 52.4075 48.3753 52.1435 48.126C51.8795 47.8693 51.7475 47.4513 51.7475 46.872V43.143H50.9115V42.494H51.7475V40.987H52.5285V42.494H54.1785V43.143H52.5285Z" fill="#5E7F87"/>
</svg>
