<svg width="77" height="36" viewBox="0 0 77 36" fill="none" xmlns="http://www.w3.org/2000/svg">
<path d="M1.152 6.344C1.68533 6.36533 2.368 6.38667 3.2 6.408C4.032 6.42933 4.864 6.44 5.696 6.44C6.74133 6.44 7.73333 6.42933 8.672 6.408C9.61067 6.38667 10.272 6.376 10.656 6.376C13.1733 6.376 15.0507 6.84533 16.288 7.784C17.5467 8.72267 18.176 9.928 18.176 11.4C18.176 12.1467 17.9733 12.8933 17.568 13.64C17.184 14.3867 16.5547 15.0587 15.68 15.656C14.8267 16.2533 13.7067 16.7013 12.32 17V17.064C14.1973 17.2347 15.68 17.6187 16.768 18.216C17.8773 18.792 18.6667 19.4853 19.136 20.296C19.6053 21.0853 19.84 21.9173 19.84 22.792C19.84 24.0933 19.4987 25.2133 18.816 26.152C18.1547 27.0693 17.1947 27.7733 15.936 28.264C14.6773 28.7547 13.1627 29 11.392 29C10.9227 29 10.208 28.9893 9.248 28.968C8.288 28.9253 7.12533 28.904 5.76 28.904C4.88533 28.904 4.032 28.9147 3.2 28.936C2.368 28.936 1.68533 28.9573 1.152 29V28.36C1.856 28.3173 2.37867 28.232 2.72 28.104C3.08267 27.976 3.31733 27.72 3.424 27.336C3.552 26.952 3.616 26.376 3.616 25.608V9.736C3.616 8.94666 3.552 8.37067 3.424 8.008C3.31733 7.624 3.08267 7.368 2.72 7.24C2.37867 7.09067 1.856 7.00533 1.152 6.984V6.344ZM10.112 6.984C9.23733 6.984 8.66133 7.16533 8.384 7.528C8.128 7.89067 8 8.62667 8 9.736V25.608C8 26.3547 8.064 26.92 8.192 27.304C8.32 27.688 8.544 27.944 8.864 28.072C9.184 28.2 9.65333 28.264 10.272 28.264C12.0213 28.264 13.28 27.784 14.048 26.824C14.8373 25.8427 15.232 24.456 15.232 22.664C15.232 21.0213 14.8053 19.752 13.952 18.856C13.12 17.96 11.7333 17.512 9.792 17.512H6.88C6.88 17.512 6.88 17.4267 6.88 17.256C6.88 17.064 6.88 16.968 6.88 16.968H9.632C10.72 16.968 11.5627 16.7333 12.16 16.264C12.7573 15.7733 13.1627 15.1333 13.376 14.344C13.5893 13.5333 13.696 12.6693 13.696 11.752C13.696 10.1733 13.4187 8.98933 12.864 8.2C12.3093 7.38933 11.392 6.984 10.112 6.984ZM27.5668 3.944V26.024C27.5668 26.92 27.7268 27.528 28.0468 27.848C28.3881 28.168 28.9534 28.328 29.7428 28.328V29C29.3588 28.9787 28.7721 28.9573 27.9828 28.936C27.2148 28.8933 26.4254 28.872 25.6148 28.872C24.8254 28.872 24.0148 28.8933 23.1828 28.936C22.3721 28.9573 21.7641 28.9787 21.3588 29V28.328C22.1481 28.328 22.7028 28.168 23.0228 27.848C23.3641 27.528 23.5348 26.92 23.5348 26.024V7.784C23.5348 6.824 23.3854 6.12 23.0868 5.672C22.7881 5.20267 22.2121 4.968 21.3588 4.968V4.296C22.0414 4.36 22.7028 4.392 23.3428 4.392C24.1534 4.392 24.9108 4.36 25.6148 4.296C26.3188 4.21067 26.9694 4.09333 27.5668 3.944ZM35.2063 4.296C35.9743 4.296 36.6036 4.50933 37.0943 4.936C37.5849 5.36267 37.8303 5.928 37.8303 6.632C37.8303 7.336 37.5849 7.90133 37.0943 8.328C36.6036 8.75467 35.9743 8.968 35.2063 8.968C34.4383 8.968 33.8089 8.75467 33.3183 8.328C32.8276 7.90133 32.5823 7.336 32.5823 6.632C32.5823 5.928 32.8276 5.36267 33.3183 4.936C33.8089 4.50933 34.4383 4.296 35.2063 4.296ZM37.4463 12.104V26.024C37.4463 26.92 37.6063 27.528 37.9263 27.848C38.2676 28.168 38.8329 28.328 39.6223 28.328V29C39.2383 28.9787 38.6516 28.9573 37.8623 28.936C37.0729 28.8933 36.2729 28.872 35.4623 28.872C34.6729 28.872 33.8729 28.8933 33.0623 28.936C32.2516 28.9573 31.6436 28.9787 31.2383 29V28.328C32.0276 28.328 32.5823 28.168 32.9023 27.848C33.2436 27.528 33.4143 26.92 33.4143 26.024V15.976C33.4143 14.9947 33.2543 14.28 32.9343 13.832C32.6356 13.3627 32.0703 13.128 31.2383 13.128V12.456C31.9209 12.52 32.5823 12.552 33.2223 12.552C34.0116 12.552 34.7583 12.52 35.4623 12.456C36.1876 12.3707 36.8489 12.2533 37.4463 12.104ZM52.57 12.008C53.466 12.008 54.1807 12.1253 54.714 12.36C55.2687 12.5947 55.7167 12.8933 56.058 13.256C56.442 13.6613 56.7087 14.184 56.858 14.824C57.0287 15.464 57.114 16.328 57.114 17.416V26.024C57.114 26.92 57.274 27.528 57.594 27.848C57.9353 28.168 58.5007 28.328 59.29 28.328V29C58.906 28.9787 58.3087 28.9573 57.498 28.936C56.7087 28.8933 55.9407 28.872 55.194 28.872C54.4047 28.872 53.6367 28.8933 52.89 28.936C52.1433 28.9573 51.5887 28.9787 51.226 29V28.328C51.9087 28.328 52.3887 28.168 52.666 27.848C52.9433 27.528 53.082 26.92 53.082 26.024V16.328C53.082 15.752 53.0287 15.24 52.922 14.792C52.8153 14.3227 52.602 13.96 52.282 13.704C51.962 13.4267 51.5033 13.288 50.906 13.288C50.202 13.288 49.5727 13.48 49.018 13.864C48.4847 14.248 48.058 14.7813 47.738 15.464C47.4393 16.1253 47.29 16.872 47.29 17.704V26.024C47.29 26.92 47.4287 27.528 47.706 27.848C47.9833 28.168 48.4633 28.328 49.146 28.328V29C48.7833 28.9787 48.2393 28.9573 47.514 28.936C46.7887 28.8933 46.0527 28.872 45.306 28.872C44.5167 28.872 43.7167 28.8933 42.906 28.936C42.0953 28.9573 41.4873 28.9787 41.082 29V28.328C41.8713 28.328 42.426 28.168 42.746 27.848C43.0873 27.528 43.258 26.92 43.258 26.024V15.944C43.258 14.984 43.098 14.28 42.778 13.832C42.4793 13.3627 41.914 13.128 41.082 13.128V12.456C41.7647 12.52 42.426 12.552 43.066 12.552C43.8553 12.552 44.602 12.52 45.306 12.456C46.0313 12.3707 46.6927 12.2533 47.29 12.104V15.304C47.8233 14.088 48.5593 13.2347 49.498 12.744C50.4367 12.2533 51.4607 12.008 52.57 12.008ZM66.3808 35.016C65.1221 35.016 63.9808 34.8987 62.9568 34.664C61.9328 34.4293 61.1221 34.0773 60.5247 33.608C59.9274 33.16 59.6288 32.584 59.6288 31.88C59.6288 31.1973 59.9274 30.5893 60.5247 30.056C61.1221 29.5227 61.9968 29.1173 63.1488 28.84L63.3728 29.352C62.9674 29.5867 62.6581 29.9067 62.4448 30.312C62.2314 30.7173 62.1248 31.144 62.1248 31.592C62.1248 32.5093 62.5408 33.2133 63.3728 33.704C64.2261 34.216 65.3568 34.472 66.7648 34.472C67.7248 34.472 68.6101 34.344 69.4208 34.088C70.2314 33.832 70.8821 33.4373 71.3728 32.904C71.8634 32.3707 72.1088 31.7093 72.1088 30.92C72.1088 30.2587 71.8634 29.704 71.3728 29.256C70.9034 28.808 69.9541 28.584 68.5248 28.584H66.4128C65.6234 28.584 64.8981 28.4987 64.2368 28.328C63.5968 28.1573 63.0848 27.88 62.7008 27.496C62.3168 27.112 62.1248 26.5787 62.1248 25.896C62.1248 25.064 62.4661 24.3173 63.1488 23.656C63.8314 22.9733 64.8981 22.312 66.3488 21.672L66.7008 21.96C66.1674 22.2373 65.6874 22.536 65.2608 22.856C64.8554 23.176 64.6528 23.5813 64.6528 24.072C64.6528 24.7547 65.1221 25.096 66.0608 25.096H69.6768C70.7861 25.096 71.7674 25.2347 72.6208 25.512C73.4954 25.7893 74.1888 26.2267 74.7008 26.824C75.2128 27.4213 75.4688 28.2107 75.4688 29.192C75.4688 30.216 75.1381 31.1653 74.4768 32.04C73.8154 32.936 72.8128 33.6507 71.4688 34.184C70.1461 34.7387 68.4501 35.016 66.3808 35.016ZM66.6688 22.184C65.5168 22.184 64.4714 22.0133 63.5328 21.672C62.6154 21.3093 61.8901 20.7547 61.3568 20.008C60.8234 19.24 60.5568 18.2693 60.5568 17.096C60.5568 15.9227 60.8234 14.9627 61.3568 14.216C61.8901 13.4693 62.6154 12.9147 63.5328 12.552C64.4714 12.1893 65.5168 12.008 66.6688 12.008C67.8421 12.008 68.8874 12.1893 69.8048 12.552C70.7221 12.9147 71.4474 13.4693 71.9808 14.216C72.5141 14.9627 72.7808 15.9227 72.7808 17.096C72.7808 18.2693 72.5141 19.24 71.9808 20.008C71.4474 20.7547 70.7221 21.3093 69.8048 21.672C68.8874 22.0133 67.8421 22.184 66.6688 22.184ZM66.6688 21.608C67.3088 21.608 67.8101 21.288 68.1728 20.648C68.5568 19.9867 68.7488 18.8027 68.7488 17.096C68.7488 15.3893 68.5568 14.216 68.1728 13.576C67.8101 12.9147 67.3088 12.584 66.6688 12.584C66.0288 12.584 65.5168 12.9147 65.1328 13.576C64.7701 14.216 64.5888 15.3893 64.5888 17.096C64.5888 18.8027 64.7701 19.9867 65.1328 20.648C65.5168 21.288 66.0288 21.608 66.6688 21.608ZM71.5008 14.728L70.8928 14.504C71.2128 13.7147 71.7354 13.0533 72.4608 12.52C73.1861 11.9653 73.9541 11.688 74.7648 11.688C75.3834 11.688 75.8634 11.8587 76.2048 12.2C76.5674 12.5413 76.7488 13.0213 76.7488 13.64C76.7488 14.28 76.5781 14.7493 76.2368 15.048C75.8954 15.3467 75.5221 15.496 75.1168 15.496C74.7541 15.496 74.4234 15.3787 74.1248 15.144C73.8261 14.888 73.6554 14.504 73.6128 13.992C73.5701 13.4587 73.7408 12.7973 74.1248 12.008L74.4448 12.136C73.6128 12.456 72.9941 12.808 72.5888 13.192C72.1834 13.576 71.8208 14.088 71.5008 14.728Z" fill="#262A36"/>
</svg>
