<svg width="20" height="20" viewBox="0 0 20 20" fill="none" xmlns="http://www.w3.org/2000/svg">
<path d="M2.64172 6.20001L10 10.4583L17.3084 6.22499" stroke="white" stroke-linecap="round" stroke-linejoin="round"/>
<path d="M10 18.0083V10.45" stroke="white" stroke-linecap="round" stroke-linejoin="round"/>
<path d="M8.27501 2.06667L3.82502 4.5417C2.81668 5.10003 1.9917 6.50002 1.9917 7.65002V12.3584C1.9917 13.5084 2.81668 14.9084 3.82502 15.4667L8.27501 17.9417C9.22501 18.4667 10.7833 18.4667 11.7333 17.9417L16.1834 15.4667C17.1917 14.9084 18.0167 13.5084 18.0167 12.3584V7.65002C18.0167 6.50002 17.1917 5.10003 16.1834 4.5417L11.7333 2.06667C10.775 1.53334 9.22501 1.53334 8.27501 2.06667Z" stroke="white" stroke-linecap="round" stroke-linejoin="round"/>
<path d="M14.1666 11.0333V7.98334L6.2583 3.41664" stroke="white" stroke-linecap="round" stroke-linejoin="round"/>
</svg>
