<svg width="24" height="24" viewBox="0 0 24 24" fill="none" xmlns="http://www.w3.org/2000/svg">
<path d="M1.25 8C1.25 4.27208 4.27208 1.25 8 1.25L16 1.25C19.7279 1.25 22.75 4.27208 22.75 8L22.75 16C22.75 19.7279 19.7279 22.75 16 22.75L8 22.75C4.27208 22.75 1.25 19.7279 1.25 16L1.25 8ZM7.46973 11.6367C7.177 11.9296 7.17689 12.4044 7.46973 12.6973L9.42969 14.6562C10.1131 15.3396 11.2209 15.3396 11.9043 14.6562L16.5303 10.0303C16.8232 9.73738 16.8232 9.26262 16.5303 8.96973C16.2374 8.67683 15.7626 8.67683 15.4697 8.96973L10.8437 13.5957C10.7461 13.6933 10.5879 13.6933 10.4902 13.5957L8.53027 11.6367C8.23738 11.3438 7.76262 11.3438 7.46973 11.6367Z" fill="#5E7F87"/>
</svg>
