<svg width="21" height="18" viewBox="0 0 21 18" fill="none" xmlns="http://www.w3.org/2000/svg">
<path d="M18.75 0.375H2.25C1.75272 0.375 1.27581 0.572544 0.924175 0.924175C0.572544 1.27581 0.375 1.75272 0.375 2.25V15.75C0.375 16.2473 0.572544 16.7242 0.924175 17.0758C1.27581 17.4275 1.75272 17.625 2.25 17.625H18.75C19.2473 17.625 19.7242 17.4275 20.0758 17.0758C20.4275 16.7242 20.625 16.2473 20.625 15.75V2.25C20.625 1.75272 20.4275 1.27581 20.0758 0.924175C19.7242 0.572544 19.2473 0.375 18.75 0.375ZM18.375 15.375H2.625V2.625H18.375V15.375ZM5.625 5.25C5.625 4.95163 5.74353 4.66548 5.9545 4.4545C6.16548 4.24353 6.45163 4.125 6.75 4.125C7.04837 4.125 7.33452 4.24353 7.5455 4.4545C7.75647 4.66548 7.875 4.95163 7.875 5.25C7.875 5.94619 8.15156 6.61387 8.64384 7.10616C9.13613 7.59844 9.80381 7.875 10.5 7.875C11.1962 7.875 11.8639 7.59844 12.3562 7.10616C12.8484 6.61387 13.125 5.94619 13.125 5.25C13.125 4.95163 13.2435 4.66548 13.4545 4.4545C13.6655 4.24353 13.9516 4.125 14.25 4.125C14.5484 4.125 14.8345 4.24353 15.0455 4.4545C15.2565 4.66548 15.375 4.95163 15.375 5.25C15.375 6.54293 14.8614 7.78291 13.9471 8.69715C13.0329 9.61139 11.7929 10.125 10.5 10.125C9.20707 10.125 7.96709 9.61139 7.05285 8.69715C6.13861 7.78291 5.625 6.54293 5.625 5.25Z" fill="white"/>
</svg>
