<svg width="36" height="36" viewBox="0 0 36 36" fill="none" xmlns="http://www.w3.org/2000/svg">
<rect width="36" height="36" rx="18" fill="#5E7F87"/>
<path d="M10.6417 14.2L18 18.4583L25.3084 14.225" stroke="white" stroke-linecap="round" stroke-linejoin="round"/>
<path d="M18 26.0083V18.45" stroke="white" stroke-linecap="round" stroke-linejoin="round"/>
<path d="M16.275 10.0667L11.825 12.5417C10.8167 13.1 9.9917 14.5 9.9917 15.65V20.3584C9.9917 21.5084 10.8167 22.9084 11.825 23.4667L16.275 25.9417C17.225 26.4667 18.7833 26.4667 19.7333 25.9417L24.1834 23.4667C25.1917 22.9084 26.0167 21.5084 26.0167 20.3584V15.65C26.0167 14.5 25.1917 13.1 24.1834 12.5417L19.7333 10.0667C18.775 9.53334 17.225 9.53334 16.275 10.0667Z" stroke="white" stroke-linecap="round" stroke-linejoin="round"/>
<path d="M22.1666 19.0333V15.9833L14.2583 11.4166" stroke="white" stroke-linecap="round" stroke-linejoin="round"/>
</svg>
