<svg width="36" height="36" viewBox="0 0 36 36" fill="none" xmlns="http://www.w3.org/2000/svg">
<path d="M34.4998 26.8649C34.5298 27.9899 34.2298 29.055 33.6898 29.97C33.3898 30.51 32.9848 31.005 32.5348 31.41C31.4998 32.37 30.1347 32.955 28.6197 33C26.4297 33.045 24.4948 31.92 23.4298 30.195C22.8598 29.31 22.5148 28.245 22.4998 27.12C22.4548 25.23 23.2948 23.52 24.6448 22.395C25.6648 21.555 26.9548 21.03 28.3648 21C31.6798 20.925 34.4248 23.5499 34.4998 26.8649Z" stroke="white" stroke-width="1.5" stroke-miterlimit="10" stroke-linecap="round" stroke-linejoin="round"/>
<path d="M26.1597 27.045L27.6747 28.485L30.8097 25.455" stroke="white" stroke-width="1.5" stroke-linecap="round" stroke-linejoin="round"/>
<path d="M4.75488 11.16L17.9999 18.825L31.1548 11.205" stroke="white" stroke-width="1.5" stroke-linecap="round" stroke-linejoin="round"/>
<path d="M18 32.415V18.81" stroke="white" stroke-width="1.5" stroke-linecap="round" stroke-linejoin="round"/>
<path d="M32.4149 13.755V22.2451C32.4149 22.3201 32.4149 22.38 32.3999 22.455C31.3499 21.54 29.9999 21 28.4999 21C27.0899 21 25.7849 21.495 24.7499 22.32C23.3699 23.415 22.4999 25.11 22.4999 27C22.4999 28.125 22.8149 29.19 23.3699 30.09C23.5049 30.33 23.6699 30.555 23.8499 30.765L21.1049 32.2801C19.3949 33.2401 16.6049 33.2401 14.8949 32.2801L6.88493 27.84C5.06993 26.835 3.58496 24.3151 3.58496 22.2451V13.755C3.58496 11.685 5.06993 9.16503 6.88493 8.16003L14.8949 3.72C16.6049 2.76 19.3949 2.76 21.1049 3.72L29.1149 8.16003C30.9299 9.16503 32.4149 11.685 32.4149 13.755Z" stroke="white" stroke-width="1.5" stroke-linecap="round" stroke-linejoin="round"/>
</svg>
