<svg width="32" height="26" viewBox="0 0 32 26" fill="none" xmlns="http://www.w3.org/2000/svg">
<path d="M31.89 8.80217L25.9876 0.960437C25.8842 0.823062 25.7222 0.742188 25.5503 0.742188H6.44981C6.27788 0.742188 6.11588 0.823 6.0125 0.960437L0.110076 8.80217C-0.0534862 9.01942 -0.0327363 9.32373 0.158763 9.51686L3.54694 12.9329C3.75982 13.1475 4.10644 13.1488 4.32113 12.936C4.53576 12.7232 4.53719 12.3765 4.32426 12.1619L1.86132 9.67873H7.63794L13.8847 21.801L5.85107 13.7013C5.63807 13.4866 5.2915 13.4853 5.07688 13.6982C4.86225 13.911 4.86082 14.2577 5.07375 14.4723L15.6114 25.0968C15.7141 25.2003 15.854 25.2586 16 25.2586C16.146 25.2586 16.2859 25.2003 16.3886 25.0968L31.8412 9.51692C32.0328 9.32373 32.0535 9.01936 31.89 8.80217ZM22.0238 13.0215C21.7552 12.883 21.425 12.9885 21.2865 13.2573L16.5474 22.4539V9.67873H23.1305L22.4825 10.9364C22.344 11.2051 22.4496 11.5352 22.7183 11.6737C22.9871 11.8122 23.3172 11.7067 23.4557 11.4379L24.3621 9.67873H30.1386L18.1155 21.801L22.2597 13.7588C22.3982 13.4901 22.2925 13.16 22.0238 13.0215ZM7.30781 8.58392H1.64457L6.14688 2.60218L7.30781 8.58392ZM7.11369 1.837H14.6562L8.31562 8.03017L7.11369 1.837ZM15.4527 2.58943V8.58392H9.3155L15.4527 2.58943ZM16.5475 2.58943L22.6847 8.58392H16.5475V2.58943ZM17.3438 1.837H24.8865L23.6845 8.0303L17.3438 1.837ZM24.6923 8.58392L25.8531 2.60225L30.3555 8.58392H24.6923ZM15.4527 9.67873V22.454L8.86956 9.67873H15.4527Z" fill="black"/>
</svg>
