<svg width="30" height="30" viewBox="0 0 30 30" fill="none" xmlns="http://www.w3.org/2000/svg">
<circle cx="15" cy="15" r="15" fill="white"/>
<path d="M20.8934 9.61912L19.6875 8.41311C19.1365 7.86212 18.2401 7.86215 17.6891 8.41311C17.1703 8.93193 9.24665 16.8562 8.71713 17.3857C8.66073 17.4421 8.62294 17.5171 8.60947 17.5904L8.00652 20.8466C7.98316 20.9729 8.02339 21.1026 8.11418 21.1933C8.20507 21.2842 8.33477 21.3244 8.46085 21.301L11.7168 20.698C11.792 20.684 11.866 20.6458 11.9215 20.5903L20.8934 11.6177C21.4457 11.0654 21.4458 10.1715 20.8934 9.61912ZM8.87646 20.431L9.2412 18.4612L10.8461 20.0662L8.87646 20.431ZM11.6458 19.7632L9.54415 17.6615L17.2171 9.98791L19.3188 12.0897L11.6458 19.7632ZM20.3421 11.0663L19.8701 11.5384L17.7684 9.43656L18.2404 8.96452C18.4874 8.71755 18.8892 8.71753 19.1362 8.96452L20.3421 10.1705C20.5896 10.4181 20.5896 10.8187 20.3421 11.0663Z" fill="#36596A"/>
</svg>
