<svg width="25" height="25" viewBox="0 0 25 25" fill="none" xmlns="http://www.w3.org/2000/svg">
<g clip-path="url(#clip0_455_27849)">
<path d="M7.95188 15.125C7.903 15.039 7.83758 14.9636 7.75941 14.9029C7.68124 14.8423 7.59186 14.7978 7.4964 14.7719C7.40095 14.746 7.30131 14.7392 7.20322 14.7519C7.10514 14.7647 7.01055 14.7967 6.92489 14.8462C6.83923 14.8956 6.7642 14.9615 6.70412 15.0401C6.64404 15.1187 6.60009 15.2084 6.57481 15.304C6.54953 15.3996 6.54341 15.4993 6.55681 15.5973C6.57021 15.6953 6.60286 15.7897 6.65288 15.875C7.2452 16.9015 8.09746 17.7539 9.1239 18.3464C10.1503 18.9389 11.3147 19.2505 12.4999 19.25C13.685 19.2502 14.8493 18.9385 15.8756 18.346C16.902 17.7536 17.7543 16.9013 18.3469 15.875C18.3969 15.7897 18.4296 15.6953 18.443 15.5973C18.4564 15.4993 18.4502 15.3996 18.425 15.304C18.3997 15.2084 18.3557 15.1187 18.2956 15.0401C18.2356 14.9615 18.1605 14.8956 18.0749 14.8462C17.9892 14.7967 17.8946 14.7647 17.7965 14.7519C17.6985 14.7392 17.5988 14.746 17.5034 14.7719C17.4079 14.7978 17.3185 14.8423 17.2404 14.9029C17.1622 14.9636 17.0968 15.039 17.0479 15.125C16.5872 15.9235 15.9243 16.5866 15.1259 17.0474C14.3275 17.5082 13.4217 17.7505 12.4999 17.75C11.578 17.7505 10.6723 17.5082 9.87388 17.0474C9.07546 16.5866 8.41255 15.9235 7.95188 15.125ZM10.9999 8.174V8C10.9999 7.60218 10.8418 7.22064 10.5605 6.93934C10.2792 6.65804 9.89771 6.5 9.49988 6.5H5.41988C5.19187 6.50001 4.96687 6.55199 4.76196 6.652C4.55706 6.75202 4.37765 6.89743 4.23738 7.07718C4.09711 7.25693 3.99966 7.4663 3.95244 7.68937C3.90522 7.91243 3.90948 8.14333 3.96488 8.3645L4.43138 10.2275C4.59361 10.8765 4.96812 11.4527 5.49538 11.8644C6.02264 12.2762 6.6724 12.4999 7.34138 12.5H7.99988C8.75385 12.5002 9.48025 12.2165 10.0345 11.7053C10.5887 11.1941 10.9302 10.493 10.9909 9.7415C11.4764 9.57527 11.9868 9.49358 12.4999 9.5C13.0894 9.5 13.6099 9.596 14.0089 9.7415C14.0696 10.493 14.411 11.1941 14.9653 11.7053C15.5195 12.2165 16.2459 12.5002 16.9999 12.5H17.6569C18.3259 12.4999 18.9756 12.2762 19.5029 11.8644C20.0301 11.4527 20.4047 10.8765 20.5669 10.2275L21.0334 8.3645C21.0888 8.14345 21.093 7.91269 21.0459 7.68973C20.9988 7.46678 20.9015 7.25749 20.7613 7.07777C20.6212 6.89805 20.442 6.75261 20.2373 6.6525C20.0326 6.55239 19.8078 6.50023 19.5799 6.5H15.4999C15.1021 6.5 14.7205 6.65804 14.4392 6.93934C14.1579 7.22064 13.9999 7.60218 13.9999 8V8.174C13.5086 8.05636 13.005 7.99794 12.4999 8C11.9749 8 11.4649 8.06 10.9999 8.174Z" fill="#374957"/>
<path d="M24.5 12.5C24.5 15.6826 23.2357 18.7348 20.9853 20.9853C18.7348 23.2357 15.6826 24.5 12.5 24.5C9.3174 24.5 6.26516 23.2357 4.01472 20.9853C1.76428 18.7348 0.5 15.6826 0.5 12.5C0.5 9.3174 1.76428 6.26516 4.01472 4.01472C6.26516 1.76428 9.3174 0.5 12.5 0.5C15.6826 0.5 18.7348 1.76428 20.9853 4.01472C23.2357 6.26516 24.5 9.3174 24.5 12.5ZM23 12.5C23 9.71523 21.8938 7.04451 19.9246 5.07538C17.9555 3.10625 15.2848 2 12.5 2C9.71523 2 7.04451 3.10625 5.07538 5.07538C3.10625 7.04451 2 9.71523 2 12.5C2 15.2848 3.10625 17.9555 5.07538 19.9246C7.04451 21.8938 9.71523 23 12.5 23C15.2848 23 17.9555 21.8938 19.9246 19.9246C21.8938 17.9555 23 15.2848 23 12.5Z" fill="#374957"/>
</g>
<defs>
<clipPath id="clip0_455_27849">
<rect width="24" height="24" fill="white" transform="translate(0.5 0.5)"/>
</clipPath>
</defs>
</svg>
