<svg width="24" height="25" viewBox="0 0 24 25" fill="none" xmlns="http://www.w3.org/2000/svg">
<g clip-path="url(#clip0_455_27854)">
<path d="M14.4998 13.5C14.2031 13.5 13.9131 13.4121 13.6664 13.2472C13.4198 13.0824 13.2275 12.8481 13.114 12.5741C13.0004 12.3 12.9707 11.9984 13.0286 11.7074C13.0865 11.4164 13.2293 11.1491 13.4391 10.9394C13.6489 10.7296 13.9162 10.5867 14.2071 10.5288C14.4981 10.471 14.7997 10.5007 15.0738 10.6142C15.3479 10.7277 15.5822 10.92 15.747 11.1667C15.9118 11.4133 15.9998 11.7034 15.9998 12C15.9998 12.3979 15.8417 12.7794 15.5604 13.0607C15.2791 13.342 14.8976 13.5 14.4998 13.5ZM23.9248 18.644C24.0496 19.3622 24.0158 20.099 23.8259 20.8028C23.6359 21.5066 23.2944 22.1604 22.8252 22.7183C22.356 23.2762 21.7705 23.7247 21.1097 24.0325C20.4489 24.3403 19.7287 24.4999 18.9998 24.5H14.9998C14.7346 24.5 14.4802 24.3947 14.2927 24.2071C14.1051 24.0196 13.9998 23.7652 13.9998 23.5V21.237C13.347 21.4092 12.6749 21.4975 11.9998 21.5C11.3243 21.4966 10.652 21.4058 9.99978 21.23V23.5C9.99978 23.7652 9.89443 24.0196 9.70689 24.2071C9.51935 24.3947 9.265 24.5 8.99978 24.5H4.99979C4.27082 24.4999 3.5507 24.3403 2.88989 24.0325C2.22909 23.7247 1.64357 23.2762 1.17437 22.7183C0.705169 22.1604 0.363633 21.5066 0.173691 20.8028C-0.016251 20.099 -0.0500045 19.3622 0.0747952 18.644L0.374795 16.904C0.474553 16.3253 0.745389 15.7898 1.15238 15.3664C1.55937 14.9431 2.08384 14.6514 2.65818 14.5289C3.23251 14.4064 3.83036 14.4588 4.37463 14.6793C4.91891 14.8998 5.38465 15.2783 5.71179 15.766C6.97579 17.624 9.40878 19.5 11.9998 19.5C15.1298 19.5 18.2138 16.721 19.1298 14.124C19.2033 13.9288 19.3343 13.7605 19.5056 13.6414C19.6768 13.5223 19.8802 13.458 20.0888 13.457L20.5208 13.464C20.7144 13.4664 20.9066 13.4303 21.0861 13.3577C21.2656 13.2852 21.429 13.1777 21.5666 13.0415C21.7042 12.9053 21.8134 12.743 21.8877 12.5642C21.9621 12.3855 22.0002 12.1937 21.9998 12C21.9994 11.6493 21.8762 11.3098 21.6515 11.0405C21.4267 10.7712 21.1148 10.5892 20.7698 10.526C20.557 10.4874 20.3625 10.3809 20.2154 10.2224C20.0683 10.064 19.9765 9.86207 19.9538 9.64703C19.7482 7.68232 18.821 5.86375 17.3516 4.54344C15.8822 3.22313 13.9752 2.495 11.9998 2.50003C6.42279 2.50003 4.89179 6.12803 3.66179 9.04403C3.43779 9.57103 3.22679 10.074 2.99979 10.527C5.01058 10.4207 6.97128 9.86103 8.73521 8.88988C10.4991 7.91873 12.0206 6.56126 13.1858 4.91903C13.2621 4.81213 13.3587 4.72131 13.4701 4.65175C13.5815 4.58219 13.7055 4.53525 13.835 4.51361C13.9646 4.49198 14.0971 4.49607 14.225 4.52565C14.353 4.55523 14.4739 4.60973 14.5808 4.68603C14.6877 4.76233 14.7785 4.85893 14.8481 4.97033C14.9176 5.08173 14.9646 5.20573 14.9862 5.33527C15.0078 5.46481 15.0037 5.59734 14.9742 5.7253C14.9446 5.85325 14.8901 5.97413 14.8138 6.08103C13.5158 7.92119 11.8224 9.4475 9.85778 10.548C10.1573 10.6216 10.4268 10.7856 10.6297 11.0178C10.8326 11.25 10.959 11.5391 10.9917 11.8458C11.0244 12.1524 10.9618 12.4616 10.8124 12.7314C10.663 13.0012 10.4341 13.2184 10.1568 13.3534C9.87959 13.4884 9.56748 13.5347 9.26299 13.4859C8.9585 13.4371 8.67643 13.2957 8.45519 13.0809C8.23396 12.8661 8.08431 12.5883 8.02662 12.2854C7.96892 11.9825 8.006 11.6691 8.13279 11.388C5.83361 12.319 3.34759 12.6958 0.875794 12.488C0.669766 12.4604 0.477464 12.3693 0.325632 12.2273C0.1738 12.0853 0.0699855 11.8996 0.0286266 11.6959C-0.0127322 11.4921 0.0104205 11.2806 0.0948647 11.0907C0.179309 10.9007 0.320847 10.7418 0.499795 10.636C1.10433 9.95013 1.55418 9.14218 1.81879 8.26703C3.12379 5.17403 5.09979 0.500028 11.9998 0.500028C14.3541 0.494451 16.6346 1.32208 18.4373 2.83639C20.2401 4.35071 21.4489 6.45403 21.8498 8.77403C22.4861 9.04007 23.0297 9.48821 23.4122 10.0622C23.7947 10.6361 23.9991 11.3103 23.9998 12C23.9981 12.831 23.6946 13.6331 23.1458 14.257C23.1528 14.283 23.1708 14.304 23.1758 14.332L23.9248 18.644ZM7.99979 20.44C6.41804 19.5924 5.06566 18.3735 4.05879 16.888C3.9731 16.7585 3.85685 16.6521 3.7203 16.5781C3.58374 16.5042 3.43108 16.465 3.27579 16.464H3.25879C3.03985 16.4686 2.82931 16.5491 2.66315 16.6918C2.49699 16.8344 2.38552 17.0303 2.34779 17.246L2.04779 18.985C1.97273 19.4158 1.99274 19.8578 2.10643 20.28C2.22012 20.7023 2.42473 21.0945 2.70595 21.4294C2.98716 21.7642 3.33818 22.0336 3.73441 22.2185C4.13065 22.4034 4.56252 22.4995 4.99979 22.5H7.99979V20.44ZM21.9548 18.985L21.3268 15.372C21.1366 15.4174 20.9429 15.4461 20.7478 15.458C19.7389 17.5869 18.075 19.337 15.9998 20.452V22.5H18.9998C19.4372 22.4999 19.8693 22.4042 20.2658 22.2195C20.6623 22.0348 21.0137 21.7656 21.2952 21.4308C21.5767 21.0961 21.7816 20.7038 21.8956 20.2814C22.0095 19.8591 22.0297 19.417 21.9548 18.986V18.985Z" fill="#374957"/>
</g>
<defs>
<clipPath id="clip0_455_27854">
<rect width="24" height="24" fill="white" transform="translate(0 0.5)"/>
</clipPath>
</defs>
</svg>
