<svg width="20" height="16" viewBox="0 0 20 16" fill="none" xmlns="http://www.w3.org/2000/svg">
<path d="M16.7451 0.405273C17.0136 0.141058 17.4483 0.141081 17.7168 0.405273C17.9609 0.645461 17.9838 1.02126 17.7842 1.28613L17.7168 1.36133L3.25781 15.5918C2.98933 15.856 2.55364 15.856 2.28516 15.5918C2.04128 15.3516 2.01913 14.9757 2.21875 14.7109L2.28516 14.6348L4.09082 12.8564C2.79046 11.6883 1.69956 10.1269 0.887695 8.26562C0.813265 8.09482 0.81381 7.9011 0.888672 7.73047C1.8287 5.58797 3.13367 3.84067 4.69922 2.62891C6.28404 1.39453 8.11358 0.734375 9.99902 0.734375C11.7001 0.734432 13.3505 1.27404 14.8291 2.29004L16.7451 0.405273ZM16.415 4.62012C16.7184 4.39555 17.1496 4.45542 17.3779 4.75391C18.0432 5.62372 18.6245 6.62258 19.1113 7.73047C19.1864 7.90153 19.1863 8.09548 19.1113 8.2666C17.2071 12.6081 13.7909 15.2627 10.001 15.2627C9.13819 15.2627 8.28411 15.1255 7.46191 14.8555C7.10195 14.7371 6.90718 14.3534 7.02734 13.999C7.14762 13.6447 7.53736 13.454 7.89746 13.5723C8.57973 13.7964 9.28661 13.9092 10.001 13.9092C13.0302 13.9092 15.8499 11.836 17.584 8.30078L17.7266 8L17.6787 7.89258C17.3298 7.15364 16.9351 6.47559 16.5 5.86621L16.2793 5.56738C16.051 5.26884 16.1117 4.84484 16.415 4.62012ZM9.99902 2.08691C8.43184 2.08691 6.90031 2.63939 5.55078 3.69043C4.25844 4.6907 3.15081 6.12917 2.31445 7.90723L2.27148 8L2.31348 8.08984C3.04054 9.64358 3.97705 10.936 5.06445 11.8994L7.02539 9.96875C6.62932 9.39542 6.41211 8.71597 6.41211 7.99707C6.41224 6.04215 8.01432 4.46485 10 4.46484C10.7268 4.46484 11.4244 4.68014 12.0059 5.06836L13.8389 3.26465C12.64 2.49131 11.3344 2.08697 9.99902 2.08691ZM12.9688 7.83887C13.3424 7.905 13.5905 8.25633 13.5234 8.62402C13.26 10.0656 12.1084 11.2023 10.6445 11.4639C10.2711 11.5306 9.9137 11.2864 9.8457 10.9189C9.77791 10.5514 10.0251 10.1988 10.3984 10.1318C11.2977 9.97118 12.009 9.27067 12.1709 8.38477C12.2325 8.04771 12.5377 7.81379 12.876 7.82812L12.9688 7.83887ZM10 5.81738C8.77392 5.81739 7.78724 6.7893 7.78711 7.99707C7.78711 8.34935 7.87206 8.68323 8.02832 8.98242L11.0029 6.05566C10.6985 5.90279 10.3558 5.81738 10 5.81738Z" fill="#495A89"/>
<path d="M16.7451 0.405273L16.8152 0.476563L16.8153 0.476547L16.7451 0.405273ZM17.7168 0.405273L17.7869 0.334L17.7869 0.333995L17.7168 0.405273ZM17.7842 1.28613L17.8589 1.35311L17.864 1.34632L17.7842 1.28613ZM17.7168 1.36133L17.7871 1.43274L17.7913 1.42806L17.7168 1.36133ZM3.25781 15.5918L3.32796 15.6631L3.32796 15.6631L3.25781 15.5918ZM2.28516 15.5918L2.21498 15.663L2.21501 15.6631L2.28516 15.5918ZM2.21875 14.7109L2.14318 14.6451L2.1389 14.6507L2.21875 14.7109ZM2.28516 14.6348L2.21478 14.5633L2.20978 14.5691L2.28516 14.6348ZM4.09082 12.8564L4.16099 12.9277L4.23673 12.8531L4.15765 12.7821L4.09082 12.8564ZM0.887695 8.26562L0.796021 8.30557L0.796035 8.30561L0.887695 8.26562ZM0.888672 7.73047L0.797098 7.69029L0.797097 7.69029L0.888672 7.73047ZM4.69922 2.62891L4.76043 2.70799L4.76067 2.7078L4.69922 2.62891ZM9.99902 0.734375L9.99903 0.634375H9.99902V0.734375ZM14.8291 2.29004L14.7725 2.37246L14.8404 2.41916L14.8992 2.36133L14.8291 2.29004ZM16.415 4.62012L16.3555 4.53974L16.3555 4.53976L16.415 4.62012ZM17.3779 4.75391L17.4574 4.69315L17.4574 4.69315L17.3779 4.75391ZM19.1113 7.73047L19.2029 7.69027L19.2029 7.69024L19.1113 7.73047ZM19.1113 8.2666L19.2029 8.30677L19.2029 8.30672L19.1113 8.2666ZM10.001 15.2627V15.3627V15.2627ZM7.46191 14.8555L7.43066 14.9505L7.43071 14.9505L7.46191 14.8555ZM7.02734 13.999L6.93265 13.9669L6.93264 13.9669L7.02734 13.999ZM7.89746 13.5723L7.86626 13.6673H7.86626L7.89746 13.5723ZM10.001 13.9092V14.0092H10.001L10.001 13.9092ZM17.584 8.30078L17.6738 8.34482L17.6743 8.34362L17.584 8.30078ZM17.7266 8L17.8169 8.04283L17.8366 8.0013L17.8179 7.95931L17.7266 8ZM17.6787 7.89258L17.7701 7.85188L17.7691 7.84988L17.6787 7.89258ZM16.5 5.86621L16.5814 5.8081L16.5804 5.8068L16.5 5.86621ZM16.2793 5.56738L16.3597 5.50797L16.3587 5.50663L16.2793 5.56738ZM9.99902 2.08691L9.99903 1.98691H9.99902V2.08691ZM5.55078 3.69043L5.61199 3.76951L5.61223 3.76933L5.55078 3.69043ZM2.31445 7.90723L2.22396 7.86466L2.22371 7.8652L2.31445 7.90723ZM2.27148 8L2.18074 7.95797L2.16119 8.00019L2.18089 8.04234L2.27148 8ZM2.31348 8.08984L2.22288 8.13219L2.2229 8.13223L2.31348 8.08984ZM5.06445 11.8994L4.99814 11.9743L5.06805 12.0362L5.13461 11.9707L5.06445 11.8994ZM7.02539 9.96875L7.09555 10.04L7.15543 9.98105L7.10767 9.91191L7.02539 9.96875ZM6.41211 7.99707L6.31211 7.99706V7.99707H6.41211ZM10 4.46484V4.36484V4.46484ZM12.0059 5.06836L11.9503 5.15153L12.018 5.19671L12.076 5.13964L12.0059 5.06836ZM13.8389 3.26465L13.909 3.33593L13.998 3.24832L13.8931 3.18062L13.8389 3.26465ZM12.9688 7.83887L12.9862 7.74022L12.9803 7.73953L12.9688 7.83887ZM13.5234 8.62402L13.6218 8.642L13.6218 8.64197L13.5234 8.62402ZM10.6445 11.4639L10.6621 11.5623H10.6621L10.6445 11.4639ZM9.8457 10.9189L9.74736 10.9371L9.74737 10.9371L9.8457 10.9189ZM10.3984 10.1318L10.3808 10.0334L10.3808 10.0334L10.3984 10.1318ZM12.1709 8.38477L12.0725 8.36677L12.0725 8.36679L12.1709 8.38477ZM12.876 7.82812L12.8875 7.72852L12.8802 7.72821L12.876 7.82812ZM10 5.81738V5.71738V5.81738ZM7.78711 7.99707L7.68711 7.99706V7.99707H7.78711ZM8.02832 8.98242L7.93968 9.02872L8.0022 9.14841L8.09846 9.0537L8.02832 8.98242ZM11.0029 6.05566L11.0731 6.12695L11.1726 6.02899L11.0478 5.9663L11.0029 6.05566ZM16.7451 0.405273L16.8153 0.476547C17.0448 0.250638 17.4171 0.25065 17.6467 0.476552L17.7168 0.405273L17.7869 0.333995C17.4795 0.0315116 16.9824 0.0314778 16.675 0.334L16.7451 0.405273ZM17.7168 0.405273L17.6467 0.476547C17.8547 0.681307 17.874 1.00085 17.7043 1.22594L17.7842 1.28613L17.864 1.34632C18.0937 1.04168 18.067 0.609615 17.7869 0.334L17.7168 0.405273ZM17.7842 1.28613L17.7097 1.2194L17.6423 1.29459L17.7168 1.36133L17.7913 1.42806L17.8587 1.35287L17.7842 1.28613ZM17.7168 1.36133L17.6467 1.29006L3.18767 15.5205L3.25781 15.5918L3.32796 15.6631L17.7869 1.4326L17.7168 1.36133ZM3.25781 15.5918L3.18767 15.5205C2.9581 15.7464 2.58487 15.7464 2.3553 15.5205L2.28516 15.5918L2.21501 15.6631C2.52242 15.9656 3.02055 15.9656 3.32796 15.6631L3.25781 15.5918ZM2.28516 15.5918L2.35533 15.5206C2.14757 15.3159 2.12883 14.9963 2.2986 14.7711L2.21875 14.7109L2.1389 14.6507C1.90942 14.9551 1.93498 15.3873 2.21498 15.663L2.28516 15.5918ZM2.21875 14.7109L2.29413 14.7767L2.36053 14.7005L2.28516 14.6348L2.20978 14.5691L2.14337 14.6452L2.21875 14.7109ZM2.28516 14.6348L2.35533 14.706L4.16099 12.9277L4.09082 12.8564L4.02065 12.7852L2.21499 14.5635L2.28516 14.6348ZM4.09082 12.8564L4.15765 12.7821C2.86947 11.6248 1.78638 10.0759 0.979355 8.22564L0.887695 8.26562L0.796035 8.30561C1.61273 10.178 2.71145 11.7517 4.02399 12.9308L4.09082 12.8564ZM0.887695 8.26562L0.97937 8.22568C0.916124 8.08054 0.916535 7.91586 0.980246 7.77065L0.888672 7.73047L0.797097 7.69029C0.711086 7.88634 0.710407 8.1091 0.796021 8.30557L0.887695 8.26562ZM0.888672 7.73047L0.980245 7.77065C1.91478 5.64066 3.21031 3.90781 4.76043 2.70799L4.69922 2.62891L4.63801 2.54983C3.05703 3.77354 1.74262 5.53528 0.797098 7.69029L0.888672 7.73047ZM4.69922 2.62891L4.76067 2.7078C6.32942 1.48593 8.13767 0.834375 9.99902 0.834375V0.734375V0.634375C8.08949 0.634375 6.23866 1.30312 4.63777 2.55001L4.69922 2.62891ZM9.99902 0.734375L9.99902 0.834375C11.6783 0.834431 13.3092 1.36697 14.7725 2.37246L14.8291 2.29004L14.8857 2.20762C13.3919 1.18111 11.7219 0.634433 9.99903 0.634375L9.99902 0.734375ZM14.8291 2.29004L14.8992 2.36133L16.8152 0.476563L16.7451 0.405273L16.675 0.333984L14.759 2.21875L14.8291 2.29004ZM16.415 4.62012L16.4745 4.70049C16.7343 4.50816 17.1036 4.55989 17.2985 4.81466L17.3779 4.75391L17.4574 4.69315C17.1956 4.35095 16.7024 4.28293 16.3555 4.53974L16.415 4.62012ZM17.3779 4.75391L17.2985 4.81466C17.9584 5.67749 18.5358 6.66933 19.0198 7.7707L19.1113 7.73047L19.2029 7.69024C18.7132 6.57583 18.128 5.56994 17.4574 4.69315L17.3779 4.75391ZM19.1113 7.73047L19.0198 7.77066C19.0836 7.91605 19.0835 8.08088 19.0197 8.22648L19.1113 8.2666L19.2029 8.30672C19.2891 8.11008 19.2893 7.88701 19.2029 7.69027L19.1113 7.73047ZM19.1113 8.2666L19.0197 8.22643C17.1262 12.5436 13.7396 15.1627 10.001 15.1627V15.2627V15.3627C13.8423 15.3627 17.288 12.6726 19.2029 8.30677L19.1113 8.2666ZM10.001 15.2627V15.1627C9.14884 15.1627 8.30529 15.0272 7.49312 14.7605L7.46191 14.8555L7.43071 14.9505C8.26292 15.2238 9.12753 15.3627 10.001 15.3627V15.2627ZM7.46191 14.8555L7.49316 14.7605C7.18481 14.659 7.02013 14.3317 7.12205 14.0311L7.02734 13.999L6.93264 13.9669C6.79422 14.3751 7.01909 14.8151 7.43066 14.9505L7.46191 14.8555ZM7.02734 13.999L7.12204 14.0312C7.22424 13.7301 7.55694 13.5657 7.86626 13.6673L7.89746 13.5723L7.92867 13.4773C7.51779 13.3423 7.071 13.5593 6.93265 13.9669L7.02734 13.999ZM7.89746 13.5723L7.86626 13.6673C8.55859 13.8947 9.27601 14.0092 10.001 14.0092V13.9092V13.8092C9.29721 13.8092 8.60086 13.698 7.92867 13.4773L7.89746 13.5723ZM10.001 13.9092L10.001 14.0092C13.0799 14.0092 15.9287 11.9025 17.6738 8.34482L17.584 8.30078L17.4942 8.25674C15.7712 11.7695 12.9805 13.8092 10.001 13.8092L10.001 13.9092ZM17.584 8.30078L17.6743 8.34362L17.8169 8.04283L17.7266 8L17.6362 7.95717L17.4936 8.25795L17.584 8.30078ZM17.7266 8L17.8179 7.95931L17.7701 7.85189L17.6787 7.89258L17.5874 7.93327L17.6352 8.04069L17.7266 8ZM17.6787 7.89258L17.7691 7.84988C17.4179 7.106 17.0202 6.42273 16.5814 5.8081L16.5 5.86621L16.4186 5.92432C16.85 6.52845 17.2417 7.20128 17.5883 7.93528L17.6787 7.89258ZM16.5 5.86621L16.5804 5.8068L16.3597 5.50797L16.2793 5.56738L16.1989 5.62679L16.4196 5.92562L16.5 5.86621ZM16.2793 5.56738L16.3587 5.50663C16.1646 5.25276 16.2157 4.8922 16.4746 4.70047L16.415 4.62012L16.3555 4.53976C16.0076 4.79747 15.9374 5.28492 16.1999 5.62813L16.2793 5.56738ZM9.99902 2.08691V1.98691C8.40748 1.98691 6.8547 2.54816 5.48934 3.61153L5.55078 3.69043L5.61223 3.76933C6.94592 2.73061 8.45619 2.18691 9.99902 2.18691V2.08691ZM5.55078 3.69043L5.48957 3.61135C4.18255 4.62298 3.06578 6.075 2.22396 7.86466L2.31445 7.90723L2.40494 7.94979C3.23583 6.18335 4.33432 4.75842 5.61199 3.76951L5.55078 3.69043ZM2.31445 7.90723L2.22371 7.8652L2.18074 7.95797L2.27148 8L2.36222 8.04203L2.40519 7.94925L2.31445 7.90723ZM2.27148 8L2.18089 8.04234L2.22288 8.13219L2.31348 8.08984L2.40407 8.0475L2.36208 7.95766L2.27148 8ZM2.31348 8.08984L2.2229 8.13223C2.9548 9.69629 3.89896 11.0004 4.99814 11.9743L5.06445 11.8994L5.13077 11.8246C4.05514 10.8715 3.12628 9.59087 2.40405 8.04746L2.31348 8.08984ZM5.06445 11.8994L5.13461 11.9707L7.09555 10.04L7.02539 9.96875L6.95523 9.89749L4.99429 11.8282L5.06445 11.8994ZM7.02539 9.96875L7.10767 9.91191C6.72303 9.35514 6.51211 8.69548 6.51211 7.99707H6.41211H6.31211C6.31211 8.73646 6.53561 9.4357 6.94311 10.0256L7.02539 9.96875ZM6.41211 7.99707L6.51211 7.99708C6.51224 6.09884 8.06808 4.56485 10 4.56484V4.46484V4.36484C7.96057 4.36485 6.31225 5.98546 6.31211 7.99706L6.41211 7.99707ZM10 4.46484V4.56484C10.707 4.56484 11.3853 4.77431 11.9503 5.15153L12.0059 5.06836L12.0614 4.98519C11.4635 4.58598 10.7465 4.36484 10 4.36484V4.46484ZM12.0059 5.06836L12.076 5.13964L13.909 3.33593L13.8389 3.26465L13.7687 3.19337L11.9357 4.99708L12.0059 5.06836ZM13.8389 3.26465L13.8931 3.18062C12.6795 2.39777 11.3552 1.98697 9.99903 1.98691L9.99902 2.08691L9.99902 2.18691C11.3135 2.18697 12.6006 2.58486 13.7847 3.34868L13.8389 3.26465ZM12.9688 7.83887L12.9513 7.93734C13.2717 7.99405 13.4819 8.29429 13.4251 8.60608L13.5234 8.62402L13.6218 8.64197C13.6991 8.21837 13.413 7.81594 12.9862 7.7404L12.9688 7.83887ZM13.5234 8.62402L13.4251 8.60605C13.1693 10.0058 12.0505 11.1111 10.6269 11.3654L10.6445 11.4639L10.6621 11.5623C12.1663 11.2936 13.3507 10.1254 13.6218 8.642L13.5234 8.62402ZM10.6445 11.4639L10.6269 11.3654C10.3064 11.4227 10.0018 11.2129 9.94403 10.9007L9.8457 10.9189L9.74737 10.9371C9.8256 11.3599 10.2358 11.6385 10.6621 11.5623L10.6445 11.4639ZM9.8457 10.9189L9.94404 10.9008C9.88652 10.589 10.0961 10.2876 10.4161 10.2303L10.3984 10.1318L10.3808 10.0334C9.95406 10.1099 9.66929 10.5139 9.74736 10.9371L9.8457 10.9189ZM10.3984 10.1318L10.416 10.2303C11.3555 10.0624 12.0997 9.33054 12.2693 8.40274L12.1709 8.38477L12.0725 8.36679C11.9183 9.21079 11.2399 9.87992 10.3809 10.0334L10.3984 10.1318ZM12.1709 8.38477L12.2693 8.40276C12.3216 8.11647 12.5816 7.91574 12.8717 7.92804L12.876 7.82812L12.8802 7.72821C12.4938 7.71185 12.1435 7.97896 12.0725 8.36677L12.1709 8.38477ZM12.876 7.82812L12.8645 7.92746L12.9572 7.9382L12.9688 7.83887L12.9803 7.73953L12.8875 7.72879L12.876 7.82812ZM10 5.81738V5.71738C8.72011 5.71739 7.68725 6.73266 7.68711 7.99706L7.78711 7.99707L7.88711 7.99708C7.88724 6.84594 8.82772 5.91739 10 5.91738V5.81738ZM7.78711 7.99707H7.68711C7.68711 8.36571 7.77607 8.71544 7.93968 9.02872L8.02832 8.98242L8.11696 8.93613C7.96805 8.65102 7.88711 8.33299 7.88711 7.99707H7.78711ZM8.02832 8.98242L8.09846 9.0537L11.0731 6.12695L11.0029 6.05566L10.9328 5.98438L7.95819 8.91114L8.02832 8.98242ZM11.0029 6.05566L11.0478 5.9663C10.7299 5.80664 10.3719 5.71738 10 5.71738V5.81738V5.91738C10.3398 5.91738 10.6672 5.99894 10.958 6.14503L11.0029 6.05566Z" fill="#495A89"/>
</svg>
