<svg width="385" height="488" viewBox="0 0 385 488" fill="none" xmlns="http://www.w3.org/2000/svg">
<path fill-rule="evenodd" clip-rule="evenodd" d="M366.87 797.607C437.584 751.249 424.814 645.311 458.011 567.544C490.445 491.563 578.563 428.044 558.875 347.81C539.137 267.373 428.185 255.406 367.569 198.968C305.296 140.987 281.58 40.3449 200.601 14.2274C115.098 -13.3492 10.4192 3.48776 -57.9993 61.7124C-123.951 117.838 -103.355 222.815 -137.849 302.25C-171.831 380.508 -265.822 436.435 -257.59 521.355C-249.292 606.951 -167.801 665.869 -97.7617 715.77C-34.0006 761.198 41.9903 776.149 119.092 789.729C202.515 804.423 296.029 844.049 366.87 797.607Z" stroke="url(#paint0_linear_249_10495)" stroke-opacity="0.24" stroke-width="2"/>
<defs>
<linearGradient id="paint0_linear_249_10495" x1="357.699" y1="803.137" x2="-69.1435" y2="63.8241" gradientUnits="userSpaceOnUse">
<stop stop-color="#D9A55D"/>
<stop offset="1" stop-color="#F5E09E"/>
</linearGradient>
</defs>
</svg>
