<svg width="64" height="64" viewBox="0 0 64 64" fill="none" xmlns="http://www.w3.org/2000/svg">
<path d="M40.0402 18.3197L34.2802 14.2897C32.7102 13.1897 30.3002 13.2497 28.7902 14.4197L23.7802 18.3297C22.7802 19.1097 21.9902 20.7097 21.9902 21.9697V28.8697C21.9902 31.4197 24.0602 33.4997 26.6102 33.4997H37.3902C39.9402 33.4997 42.0102 31.4297 42.0102 28.8797V22.0997C42.0102 20.7497 41.1402 19.0897 40.0402 18.3197ZM32.7502 29.4997C32.7502 29.9097 32.4102 30.2497 32.0002 30.2497C31.5902 30.2497 31.2502 29.9097 31.2502 29.4997V26.4997C31.2502 26.0897 31.5902 25.7497 32.0002 25.7497C32.4102 25.7497 32.7502 26.0897 32.7502 26.4997V29.4997Z" fill="#003441"/>
<path d="M22.089 40.811V48.5H21.319V44.903H17.15V48.5H16.38V40.811H17.15V44.265H21.319V40.811H22.089ZM26.4748 48.588C25.9102 48.588 25.4005 48.4633 24.9458 48.214C24.4985 47.9573 24.1428 47.598 23.8788 47.136C23.6222 46.6667 23.4938 46.1203 23.4938 45.497C23.4938 44.8737 23.6258 44.331 23.8898 43.869C24.1538 43.3997 24.5132 43.0403 24.9678 42.791C25.4225 42.5343 25.9322 42.406 26.4968 42.406C27.0615 42.406 27.5712 42.5343 28.0258 42.791C28.4878 43.0403 28.8472 43.3997 29.1038 43.869C29.3678 44.331 29.4998 44.8737 29.4998 45.497C29.4998 46.113 29.3678 46.6557 29.1038 47.125C28.8398 47.5943 28.4768 47.9573 28.0148 48.214C27.5528 48.4633 27.0395 48.588 26.4748 48.588ZM26.4748 47.917C26.8708 47.917 27.2375 47.829 27.5748 47.653C27.9122 47.4697 28.1835 47.1983 28.3888 46.839C28.6015 46.4723 28.7078 46.025 28.7078 45.497C28.7078 44.969 28.6052 44.5253 28.3998 44.166C28.1945 43.7993 27.9232 43.528 27.5858 43.352C27.2485 43.1687 26.8818 43.077 26.4858 43.077C26.0898 43.077 25.7232 43.1687 25.3858 43.352C25.0485 43.528 24.7772 43.7993 24.5718 44.166C24.3738 44.5253 24.2748 44.969 24.2748 45.497C24.2748 46.025 24.3738 46.4723 24.5718 46.839C24.7772 47.1983 25.0448 47.4697 25.3748 47.653C25.7122 47.829 26.0788 47.917 26.4748 47.917ZM38.0534 42.384C38.7574 42.384 39.3294 42.6077 39.7694 43.055C40.2168 43.495 40.4404 44.1367 40.4404 44.98V48.5H39.6814V45.068C39.6814 44.4153 39.5238 43.9167 39.2084 43.572C38.8931 43.2273 38.4641 43.055 37.9214 43.055C37.3568 43.055 36.9058 43.242 36.5684 43.616C36.2311 43.99 36.0624 44.5327 36.0624 45.244V48.5H35.3034V45.068C35.3034 44.4153 35.1458 43.9167 34.8304 43.572C34.5151 43.2273 34.0824 43.055 33.5324 43.055C32.9678 43.055 32.5168 43.242 32.1794 43.616C31.8421 43.99 31.6734 44.5327 31.6734 45.244V48.5H30.9034V42.494H31.6734V43.528C31.8641 43.154 32.1354 42.8717 32.4874 42.681C32.8394 42.483 33.2318 42.384 33.6644 42.384C34.1851 42.384 34.6398 42.5087 35.0284 42.758C35.4244 43.0073 35.7104 43.374 35.8864 43.858C36.0478 43.3813 36.3228 43.0183 36.7114 42.769C37.1074 42.5123 37.5548 42.384 38.0534 42.384ZM47.5845 45.189C47.5845 45.453 47.5772 45.6547 47.5625 45.794H42.5795C42.6015 46.2487 42.7115 46.6373 42.9095 46.96C43.1075 47.2827 43.3678 47.5283 43.6905 47.697C44.0132 47.8583 44.3652 47.939 44.7465 47.939C45.2452 47.939 45.6632 47.818 46.0005 47.576C46.3452 47.334 46.5725 47.0077 46.6825 46.597H47.4965C47.3498 47.1837 47.0345 47.664 46.5505 48.038C46.0738 48.4047 45.4725 48.588 44.7465 48.588C44.1818 48.588 43.6758 48.4633 43.2285 48.214C42.7812 47.9573 42.4292 47.598 42.1725 47.136C41.9232 46.6667 41.7985 46.1203 41.7985 45.497C41.7985 44.8737 41.9232 44.3273 42.1725 43.858C42.4218 43.3887 42.7702 43.0293 43.2175 42.78C43.6648 42.5307 44.1745 42.406 44.7465 42.406C45.3185 42.406 45.8172 42.5307 46.2425 42.78C46.6752 43.0293 47.0052 43.3667 47.2325 43.792C47.4672 44.21 47.5845 44.6757 47.5845 45.189ZM46.8035 45.167C46.8108 44.7197 46.7192 44.3383 46.5285 44.023C46.3452 43.7077 46.0922 43.4693 45.7695 43.308C45.4468 43.1467 45.0948 43.066 44.7135 43.066C44.1415 43.066 43.6538 43.2493 43.2505 43.616C42.8472 43.9827 42.6235 44.4997 42.5795 45.167H46.8035Z" fill="#1A1A1A"/>
</svg>
