<svg width="14" height="14" viewBox="0 0 14 14" fill="none" xmlns="http://www.w3.org/2000/svg">
<path d="M7.00031 4.00586C8.10501 4.00603 9.00714 4.90393 9.00714 6.01367C9.00697 7.12242 8.10575 8.01448 7.00031 8.01465C5.89555 8.01465 4.99265 7.11752 4.99249 6.00781C4.99249 4.89881 5.89461 4.00586 7.00031 4.00586ZM7.00031 4.38086C6.10459 4.38086 5.36749 5.11075 5.36749 6.01367C5.36766 6.91577 6.09817 7.64551 7.00031 7.64551C7.90229 7.64534 8.63197 6.91566 8.63214 6.01367C8.63214 5.11085 7.89588 4.38103 7.00031 4.38086Z" fill="#91A8AD" stroke="#91A8AD" stroke-width="0.5"/>
<path d="M7 0.978516H7.00586C9.09494 0.978533 11.4606 2.20243 12.0762 4.91992C12.757 7.92859 10.9422 10.4786 9.23633 12.1211C8.60721 12.7231 7.80035 13.0264 7 13.0264C6.24967 13.0264 5.49374 12.7598 4.88379 12.2305L4.76367 12.1211C3.11124 10.5301 1.35621 8.08193 1.87207 5.19531L1.92969 4.91406C2.54521 2.20244 4.91075 0.978516 7 0.978516ZM7 1.35352C5.22804 1.35352 2.91166 2.30182 2.2998 4.99512C1.67955 7.70012 3.23729 10.0278 4.73242 11.5527L5.03027 11.8467C6.13634 12.9137 7.87076 12.9132 8.97656 11.8457L8.97559 11.8447C10.5446 10.3343 12.361 7.88037 11.7119 4.99609V4.99512C11.0941 2.30168 8.77185 1.35352 7 1.35352Z" fill="#292D32" stroke="#91A8AD" stroke-width="0.5"/>
</svg>
