<svg width="23" height="12" viewBox="0 0 23 12" fill="none" xmlns="http://www.w3.org/2000/svg">
<path d="M0.75 4.77295C0.335786 4.77295 0 5.10874 0 5.52295C0 5.93716 0.335786 6.27295 0.75 6.27295V4.77295ZM22.2803 6.05328C22.5732 5.76039 22.5732 5.28551 22.2803 4.99262L17.5074 0.219648C17.2145 -0.073245 16.7396 -0.073245 16.4467 0.219648C16.1538 0.512542 16.1538 0.987415 16.4467 1.28031L20.6893 5.52295L16.4467 9.76559C16.1538 10.0585 16.1538 10.5334 16.4467 10.8263C16.7396 11.1191 17.2145 11.1191 17.5074 10.8263L22.2803 6.05328ZM0.75 5.52295V6.27295H21.75V5.52295V4.77295H0.75V5.52295Z" fill="#000"/>
</svg>
