<svg width="64" height="64" viewBox="0 0 64 64" fill="none" xmlns="http://www.w3.org/2000/svg">
<path d="M31.9998 24.8C31.8698 24.8 31.7398 24.77 31.6198 24.7L22.7899 19.59C22.4299 19.38 22.3098 18.92 22.5198 18.56C22.7298 18.2 23.1798 18.08 23.5498 18.29L31.9998 23.18L40.3998 18.32C40.7598 18.11 41.2198 18.24 41.4298 18.59C41.6398 18.95 41.5098 19.41 41.1598 19.62L32.3899 24.7C32.2599 24.76 32.1298 24.8 31.9998 24.8Z" fill="#5E7F87"/>
<path d="M32 33.86C31.59 33.86 31.25 33.52 31.25 33.11V24.04C31.25 23.63 31.59 23.29 32 23.29C32.41 23.29 32.75 23.63 32.75 24.04V33.11C32.75 33.52 32.41 33.86 32 33.86Z" fill="#5E7F87"/>
<path d="M32.0001 34.25C31.1201 34.25 30.2501 34.06 29.5601 33.68L24.2201 30.71C22.7701 29.91 21.6401 27.98 21.6401 26.32V20.67C21.6401 19.01 22.7701 17.09 24.2201 16.28L29.5601 13.32C30.9301 12.56 33.0701 12.56 34.4401 13.32L39.7801 16.29C41.2301 17.09 42.3601 19.02 42.3601 20.68V26.33C42.3601 27.99 41.2301 29.91 39.7801 30.72L34.4401 33.68C33.7501 34.06 32.8801 34.25 32.0001 34.25ZM32.0001 14.25C31.3701 14.25 30.7501 14.38 30.2901 14.63L24.9501 17.6C23.9901 18.14 23.1401 19.57 23.1401 20.68V26.33C23.1401 27.43 23.9901 28.87 24.9501 29.41L30.2901 32.38C31.2001 32.89 32.8001 32.89 33.7101 32.38L39.0501 29.41C40.0101 28.87 40.8601 27.44 40.8601 26.33V20.68C40.8601 19.58 40.0101 18.14 39.0501 17.6L33.7101 14.63C33.2501 14.38 32.6301 14.25 32.0001 14.25Z" fill="#5E7F87"/>
<path d="M37.0002 25.49C36.5902 25.49 36.2502 25.15 36.2502 24.74V21.5201L27.1302 16.2601C26.7702 16.0501 26.6502 15.59 26.8602 15.24C27.0702 14.88 27.5202 14.76 27.8802 14.97L37.3702 20.4501C37.6002 20.5801 37.7502 20.83 37.7502 21.1V24.7601C37.7502 25.1501 37.4102 25.49 37.0002 25.49Z" fill="#5E7F87"/>
<path d="M11.297 43.022C11.297 43.682 11.0807 44.2137 10.648 44.617C10.2153 45.0203 9.56633 45.222 8.701 45.222H7.15V48.5H6.38V40.811H8.701C9.559 40.811 10.2043 41.0127 10.637 41.416C11.077 41.8193 11.297 42.3547 11.297 43.022ZM8.701 44.562C9.90367 44.562 10.505 44.0487 10.505 43.022C10.505 42.5087 10.362 42.12 10.076 41.856C9.79 41.592 9.33167 41.46 8.701 41.46H7.15V44.562H8.701ZM12.237 45.486C12.237 44.87 12.358 44.331 12.6 43.869C12.8493 43.3997 13.1903 43.0403 13.623 42.791C14.063 42.5343 14.558 42.406 15.108 42.406C15.68 42.406 16.1713 42.538 16.582 42.802C17 43.066 17.3007 43.4033 17.484 43.814V42.494H18.254V48.5H17.484V47.169C17.2933 47.5797 16.989 47.9207 16.571 48.192C16.1603 48.456 15.669 48.588 15.097 48.588C14.5543 48.588 14.063 48.4597 13.623 48.203C13.1903 47.9463 12.8493 47.5833 12.6 47.114C12.358 46.6447 12.237 46.102 12.237 45.486ZM17.484 45.497C17.484 45.013 17.385 44.5877 17.187 44.221C16.989 43.8543 16.7177 43.572 16.373 43.374C16.0357 43.176 15.6617 43.077 15.251 43.077C14.8257 43.077 14.4443 43.1723 14.107 43.363C13.7697 43.5537 13.502 43.8323 13.304 44.199C13.1133 44.5583 13.018 44.9873 13.018 45.486C13.018 45.9773 13.1133 46.41 13.304 46.784C13.502 47.1507 13.7697 47.433 14.107 47.631C14.4443 47.8217 14.8257 47.917 15.251 47.917C15.6617 47.917 16.0357 47.818 16.373 47.62C16.7177 47.422 16.989 47.1397 17.187 46.773C17.385 46.4063 17.484 45.981 17.484 45.497ZM19.6598 45.497C19.6598 44.8737 19.7845 44.331 20.0338 43.869C20.2832 43.3997 20.6278 43.0403 21.0678 42.791C21.5078 42.5343 22.0102 42.406 22.5748 42.406C23.3155 42.406 23.9242 42.5893 24.4008 42.956C24.8848 43.3227 25.1965 43.8213 25.3358 44.452H24.5108C24.4082 44.0193 24.1845 43.682 23.8398 43.44C23.5025 43.1907 23.0808 43.066 22.5748 43.066C22.1715 43.066 21.8085 43.1577 21.4858 43.341C21.1632 43.5243 20.9065 43.7993 20.7158 44.166C20.5325 44.5253 20.4408 44.969 20.4408 45.497C20.4408 46.025 20.5325 46.4723 20.7158 46.839C20.9065 47.2057 21.1632 47.4807 21.4858 47.664C21.8085 47.8473 22.1715 47.939 22.5748 47.939C23.0808 47.939 23.5025 47.818 23.8398 47.576C24.1845 47.3267 24.4082 46.982 24.5108 46.542H25.3358C25.1965 47.158 24.8848 47.653 24.4008 48.027C23.9168 48.401 23.3082 48.588 22.5748 48.588C22.0102 48.588 21.5078 48.4633 21.0678 48.214C20.6278 47.9573 20.2832 47.598 20.0338 47.136C19.7845 46.6667 19.6598 46.1203 19.6598 45.497ZM30.0029 48.5L27.5279 45.805V48.5H26.7579V40.36H27.5279V45.178L29.9479 42.494H31.0259L28.1769 45.486L31.0479 48.5H30.0029ZM31.6911 45.486C31.6911 44.87 31.8121 44.331 32.0541 43.869C32.3034 43.3997 32.6444 43.0403 33.0771 42.791C33.5171 42.5343 34.0121 42.406 34.5621 42.406C35.1341 42.406 35.6254 42.538 36.0361 42.802C36.4541 43.066 36.7548 43.4033 36.9381 43.814V42.494H37.7081V48.5H36.9381V47.169C36.7474 47.5797 36.4431 47.9207 36.0251 48.192C35.6144 48.456 35.1231 48.588 34.5511 48.588C34.0084 48.588 33.5171 48.4597 33.0771 48.203C32.6444 47.9463 32.3034 47.5833 32.0541 47.114C31.8121 46.6447 31.6911 46.102 31.6911 45.486ZM36.9381 45.497C36.9381 45.013 36.8391 44.5877 36.6411 44.221C36.4431 43.8543 36.1718 43.572 35.8271 43.374C35.4898 43.176 35.1158 43.077 34.7051 43.077C34.2798 43.077 33.8984 43.1723 33.5611 43.363C33.2238 43.5537 32.9561 43.8323 32.7581 44.199C32.5674 44.5583 32.4721 44.9873 32.4721 45.486C32.4721 45.9773 32.5674 46.41 32.7581 46.784C32.9561 47.1507 33.2238 47.433 33.5611 47.631C33.8984 47.8217 34.2798 47.917 34.7051 47.917C35.1158 47.917 35.4898 47.818 35.8271 47.62C36.1718 47.422 36.4431 47.1397 36.6411 46.773C36.8391 46.4063 36.9381 45.981 36.9381 45.497ZM41.9849 42.406C42.5496 42.406 43.0409 42.538 43.4589 42.802C43.8769 43.066 44.1776 43.3997 44.3609 43.803V42.494H45.1309V48.654C45.1309 49.204 45.0099 49.6917 44.7679 50.117C44.5333 50.5423 44.2033 50.8687 43.7779 51.096C43.3526 51.3307 42.8686 51.448 42.3259 51.448C41.5559 51.448 40.9143 51.2647 40.4009 50.898C39.8949 50.5313 39.5796 50.0327 39.4549 49.402H40.2139C40.3459 49.82 40.5953 50.1537 40.9619 50.403C41.3359 50.6523 41.7906 50.777 42.3259 50.777C42.7146 50.777 43.0629 50.6927 43.3709 50.524C43.6789 50.3627 43.9209 50.1207 44.0969 49.798C44.2729 49.4753 44.3609 49.094 44.3609 48.654V47.169C44.1703 47.5797 43.8659 47.9207 43.4479 48.192C43.0373 48.456 42.5496 48.588 41.9849 48.588C41.4349 48.588 40.9399 48.4597 40.4999 48.203C40.0673 47.9463 39.7263 47.5833 39.4769 47.114C39.2349 46.6447 39.1139 46.102 39.1139 45.486C39.1139 44.87 39.2349 44.331 39.4769 43.869C39.7263 43.3997 40.0673 43.0403 40.4999 42.791C40.9399 42.5343 41.4349 42.406 41.9849 42.406ZM44.3609 45.497C44.3609 45.013 44.2619 44.5877 44.0639 44.221C43.8659 43.8543 43.5946 43.572 43.2499 43.374C42.9126 43.176 42.5386 43.077 42.1279 43.077C41.7026 43.077 41.3213 43.1723 40.9839 43.363C40.6466 43.5537 40.3789 43.8323 40.1809 44.199C39.9903 44.5583 39.8949 44.9873 39.8949 45.486C39.8949 45.9773 39.9903 46.41 40.1809 46.784C40.3789 47.1507 40.6466 47.433 40.9839 47.631C41.3213 47.8217 41.7026 47.917 42.1279 47.917C42.5386 47.917 42.9126 47.818 43.2499 47.62C43.5946 47.422 43.8659 47.1397 44.0639 46.773C44.2619 46.4063 44.3609 45.981 44.3609 45.497ZM52.3228 45.189C52.3228 45.453 52.3155 45.6547 52.3008 45.794H47.3178C47.3398 46.2487 47.4498 46.6373 47.6478 46.96C47.8458 47.2827 48.1061 47.5283 48.4288 47.697C48.7515 47.8583 49.1035 47.939 49.4848 47.939C49.9835 47.939 50.4015 47.818 50.7388 47.576C51.0835 47.334 51.3108 47.0077 51.4208 46.597H52.2348C52.0881 47.1837 51.7728 47.664 51.2888 48.038C50.8121 48.4047 50.2108 48.588 49.4848 48.588C48.9201 48.588 48.4141 48.4633 47.9668 48.214C47.5195 47.9573 47.1675 47.598 46.9108 47.136C46.6615 46.6667 46.5368 46.1203 46.5368 45.497C46.5368 44.8737 46.6615 44.3273 46.9108 43.858C47.1601 43.3887 47.5085 43.0293 47.9558 42.78C48.4031 42.5307 48.9128 42.406 49.4848 42.406C50.0568 42.406 50.5555 42.5307 50.9808 42.78C51.4135 43.0293 51.7435 43.3667 51.9708 43.792C52.2055 44.21 52.3228 44.6757 52.3228 45.189ZM51.5418 45.167C51.5491 44.7197 51.4575 44.3383 51.2668 44.023C51.0835 43.7077 50.8305 43.4693 50.5078 43.308C50.1851 43.1467 49.8331 43.066 49.4518 43.066C48.8798 43.066 48.3921 43.2493 47.9888 43.616C47.5855 43.9827 47.3618 44.4997 47.3178 45.167H51.5418ZM55.7996 48.588C55.1102 48.588 54.5456 48.4303 54.1056 48.115C53.6729 47.7923 53.4309 47.356 53.3796 46.806H54.1716C54.2082 47.1433 54.3659 47.4183 54.6446 47.631C54.9306 47.8363 55.3119 47.939 55.7886 47.939C56.2066 47.939 56.5329 47.84 56.7676 47.642C57.0096 47.444 57.1306 47.1983 57.1306 46.905C57.1306 46.6997 57.0646 46.531 56.9326 46.399C56.8006 46.267 56.6319 46.1643 56.4266 46.091C56.2286 46.0103 55.9572 45.926 55.6126 45.838C55.1652 45.7207 54.8022 45.6033 54.5236 45.486C54.2449 45.3687 54.0066 45.1963 53.8086 44.969C53.6179 44.7343 53.5226 44.4227 53.5226 44.034C53.5226 43.7407 53.6106 43.4693 53.7866 43.22C53.9626 42.9707 54.2119 42.7727 54.5346 42.626C54.8572 42.4793 55.2239 42.406 55.6346 42.406C56.2799 42.406 56.8006 42.571 57.1966 42.901C57.5926 43.2237 57.8052 43.671 57.8346 44.243H57.0646C57.0426 43.891 56.9032 43.6087 56.6466 43.396C56.3972 43.176 56.0526 43.066 55.6126 43.066C55.2239 43.066 54.9086 43.1577 54.6666 43.341C54.4246 43.5243 54.3036 43.7517 54.3036 44.023C54.3036 44.2577 54.3732 44.452 54.5126 44.606C54.6592 44.7527 54.8389 44.87 55.0516 44.958C55.2642 45.0387 55.5502 45.1303 55.9096 45.233C56.3422 45.3503 56.6869 45.464 56.9436 45.574C57.2002 45.684 57.4202 45.8453 57.6036 46.058C57.7869 46.2707 57.8822 46.553 57.8896 46.905C57.8896 47.2277 57.8016 47.5173 57.6256 47.774C57.4496 48.0233 57.2039 48.2213 56.8886 48.368C56.5732 48.5147 56.2102 48.588 55.7996 48.588Z" fill="#5E7F87"/>
</svg>
