<svg width="21" height="20" viewBox="0 0 21 20" fill="none" xmlns="http://www.w3.org/2000/svg">
<g opacity="0.5">
<path d="M3.37694 7.84019C3.83291 6.25003 4.78058 4.84505 6.08414 3.8266C7.3877 2.80815 8.98021 2.22852 10.6334 2.17079C12.2867 2.11306 13.9157 2.58018 15.2872 3.50522C16.6586 4.43026 17.702 5.76572 18.2677 7.32019" stroke="black" stroke-linejoin="round"/>
<path d="M18.124 13.0459C17.5348 14.4424 16.5529 15.638 15.2977 16.4877C14.0424 17.3374 12.5675 17.8046 11.052 17.8326C9.53643 17.8607 8.04529 17.4485 6.75938 16.6459C5.47347 15.8434 4.44804 14.6849 3.80743 13.3112" stroke="black" stroke-linejoin="round"/>
<path d="M7.33432 12.5216L3.62253 12.7645L2.24414 16.2953" stroke="black"/>
<path d="M14.3956 7.80078L18.2503 7.79131L19.5664 4.28185" stroke="black"/>
</g>
</svg>
