<svg width="64" height="64" viewBox="0 0 64 64" fill="none" xmlns="http://www.w3.org/2000/svg">
<path d="M32.62 32.3096C32.28 32.4296 31.72 32.4296 31.38 32.3096C28.48 31.3196 22 27.1896 22 20.1896C22 17.0996 24.49 14.5996 27.56 14.5996C29.38 14.5996 30.99 15.4796 32 16.8396C33.01 15.4796 34.63 14.5996 36.44 14.5996C39.51 14.5996 42 17.0996 42 20.1896C42 27.1896 35.52 31.3196 32.62 32.3096Z" stroke="#5E7F87" stroke-width="1.5" stroke-linecap="round" stroke-linejoin="round"/>
<path d="M18.212 48.577C17.706 48.577 17.2587 48.489 16.87 48.313C16.4887 48.137 16.188 47.8913 15.968 47.576C15.748 47.2607 15.6307 46.9087 15.616 46.52H16.43C16.4667 46.894 16.6317 47.224 16.925 47.51C17.2183 47.7887 17.6473 47.928 18.212 47.928C18.7327 47.928 19.1433 47.796 19.444 47.532C19.752 47.2607 19.906 46.9197 19.906 46.509C19.906 46.179 19.8217 45.915 19.653 45.717C19.4843 45.5117 19.2753 45.3613 19.026 45.266C18.7767 45.1633 18.432 45.0533 17.992 44.936C17.4787 44.7967 17.0717 44.661 16.771 44.529C16.4703 44.397 16.2137 44.1917 16.001 43.913C15.7883 43.6343 15.682 43.2567 15.682 42.78C15.682 42.384 15.7847 42.032 15.99 41.724C16.1953 41.4087 16.485 41.163 16.859 40.987C17.233 40.811 17.662 40.723 18.146 40.723C18.8573 40.723 19.4293 40.899 19.862 41.251C20.302 41.5957 20.555 42.043 20.621 42.593H19.785C19.7337 42.2777 19.5613 41.999 19.268 41.757C18.9747 41.5077 18.5787 41.383 18.08 41.383C17.618 41.383 17.233 41.5077 16.925 41.757C16.617 41.999 16.463 42.3327 16.463 42.758C16.463 43.0807 16.5473 43.341 16.716 43.539C16.8847 43.737 17.0937 43.8873 17.343 43.99C17.5997 44.0927 17.9443 44.2027 18.377 44.32C18.8757 44.4593 19.279 44.5987 19.587 44.738C19.895 44.87 20.1553 45.0753 20.368 45.354C20.5807 45.6327 20.687 46.0067 20.687 46.476C20.687 46.8353 20.5917 47.1763 20.401 47.499C20.2103 47.8217 19.928 48.082 19.554 48.28C19.18 48.478 18.7327 48.577 18.212 48.577ZM21.8229 45.486C21.8229 44.87 21.9439 44.331 22.1859 43.869C22.4353 43.3997 22.7763 43.0403 23.2089 42.791C23.6489 42.5343 24.1439 42.406 24.6939 42.406C25.2659 42.406 25.7573 42.538 26.1679 42.802C26.5859 43.066 26.8866 43.4033 27.0699 43.814V42.494H27.8399V48.5H27.0699V47.169C26.8793 47.5797 26.5749 47.9207 26.1569 48.192C25.7463 48.456 25.2549 48.588 24.6829 48.588C24.1403 48.588 23.6489 48.4597 23.2089 48.203C22.7763 47.9463 22.4353 47.5833 22.1859 47.114C21.9439 46.6447 21.8229 46.102 21.8229 45.486ZM27.0699 45.497C27.0699 45.013 26.9709 44.5877 26.7729 44.221C26.5749 43.8543 26.3036 43.572 25.9589 43.374C25.6216 43.176 25.2476 43.077 24.8369 43.077C24.4116 43.077 24.0303 43.1723 23.6929 43.363C23.3556 43.5537 23.0879 43.8323 22.8899 44.199C22.6993 44.5583 22.6039 44.9873 22.6039 45.486C22.6039 45.9773 22.6993 46.41 22.8899 46.784C23.0879 47.1507 23.3556 47.433 23.6929 47.631C24.0303 47.8217 24.4116 47.917 24.8369 47.917C25.2476 47.917 25.6216 47.818 25.9589 47.62C26.3036 47.422 26.5749 47.1397 26.7729 46.773C26.9709 46.4063 27.0699 45.981 27.0699 45.497ZM31.7318 47.752L33.7558 42.494H34.5698L32.1608 48.5H31.2918L28.8828 42.494H29.7078L31.7318 47.752ZM41.0474 45.189C41.0474 45.453 41.0401 45.6547 41.0254 45.794H36.0424C36.0644 46.2487 36.1744 46.6373 36.3724 46.96C36.5704 47.2827 36.8307 47.5283 37.1534 47.697C37.4761 47.8583 37.8281 47.939 38.2094 47.939C38.7081 47.939 39.1261 47.818 39.4634 47.576C39.8081 47.334 40.0354 47.0077 40.1454 46.597H40.9594C40.8127 47.1837 40.4974 47.664 40.0134 48.038C39.5367 48.4047 38.9354 48.588 38.2094 48.588C37.6447 48.588 37.1387 48.4633 36.6914 48.214C36.2441 47.9573 35.8921 47.598 35.6354 47.136C35.3861 46.6667 35.2614 46.1203 35.2614 45.497C35.2614 44.8737 35.3861 44.3273 35.6354 43.858C35.8847 43.3887 36.2331 43.0293 36.6804 42.78C37.1277 42.5307 37.6374 42.406 38.2094 42.406C38.7814 42.406 39.2801 42.5307 39.7054 42.78C40.1381 43.0293 40.4681 43.3667 40.6954 43.792C40.9301 44.21 41.0474 44.6757 41.0474 45.189ZM40.2664 45.167C40.2737 44.7197 40.1821 44.3383 39.9914 44.023C39.8081 43.7077 39.5551 43.4693 39.2324 43.308C38.9097 43.1467 38.5577 43.066 38.1764 43.066C37.6044 43.066 37.1167 43.2493 36.7134 43.616C36.3101 43.9827 36.0864 44.4997 36.0424 45.167H40.2664ZM42.1042 45.486C42.1042 44.87 42.2288 44.331 42.4782 43.869C42.7275 43.3997 43.0685 43.0403 43.5012 42.791C43.9412 42.5343 44.4362 42.406 44.9862 42.406C45.5142 42.406 45.9908 42.5343 46.4162 42.791C46.8415 43.0477 47.1532 43.3813 47.3512 43.792V40.36H48.1212V48.5H47.3512V47.158C47.1678 47.576 46.8672 47.9207 46.4492 48.192C46.0312 48.456 45.5398 48.588 44.9752 48.588C44.4252 48.588 43.9302 48.4597 43.4902 48.203C43.0575 47.9463 42.7165 47.5833 42.4672 47.114C42.2252 46.6447 42.1042 46.102 42.1042 45.486ZM47.3512 45.497C47.3512 45.013 47.2522 44.5877 47.0542 44.221C46.8562 43.8543 46.5848 43.572 46.2402 43.374C45.9028 43.176 45.5288 43.077 45.1182 43.077C44.6928 43.077 44.3115 43.1723 43.9742 43.363C43.6368 43.5537 43.3692 43.8323 43.1712 44.199C42.9805 44.5583 42.8852 44.9873 42.8852 45.486C42.8852 45.9773 42.9805 46.41 43.1712 46.784C43.3692 47.1507 43.6368 47.433 43.9742 47.631C44.3115 47.8217 44.6928 47.917 45.1182 47.917C45.5288 47.917 45.9028 47.818 46.2402 47.62C46.5848 47.422 46.8562 47.1397 47.0542 46.773C47.2522 46.4063 47.3512 45.981 47.3512 45.497Z" fill="#5E7F87"/>
</svg>
