<svg width="64" height="64" viewBox="0 0 64 64" fill="none" xmlns="http://www.w3.org/2000/svg">
<g clip-path="url(#clip0_455_28406)">
<path d="M21.5 20.5H24.5" stroke="#5E7F87" stroke-width="1.5" stroke-linecap="round" stroke-linejoin="round"/>
<path d="M21.5 25H24.5" stroke="#5E7F87" stroke-width="1.5" stroke-linecap="round" stroke-linejoin="round"/>
<path d="M33.875 28.75C37.3958 28.75 40.25 25.8958 40.25 22.375C40.25 18.8542 37.3958 16 33.875 16C30.3542 16 27.5 18.8542 27.5 22.375C27.5 25.8958 30.3542 28.75 33.875 28.75Z" stroke="#5E7F87" stroke-width="1.5" stroke-linecap="round" stroke-linejoin="round"/>
<path d="M38.75 27.25L42.5 31" stroke="#5E7F87" stroke-width="1.5" stroke-linecap="round" stroke-linejoin="round"/>
</g>
<path d="M21.212 48.577C20.706 48.577 20.2587 48.489 19.87 48.313C19.4887 48.137 19.188 47.8913 18.968 47.576C18.748 47.2607 18.6307 46.9087 18.616 46.52H19.43C19.4667 46.894 19.6317 47.224 19.925 47.51C20.2183 47.7887 20.6473 47.928 21.212 47.928C21.7327 47.928 22.1433 47.796 22.444 47.532C22.752 47.2607 22.906 46.9197 22.906 46.509C22.906 46.179 22.8217 45.915 22.653 45.717C22.4843 45.5117 22.2753 45.3613 22.026 45.266C21.7767 45.1633 21.432 45.0533 20.992 44.936C20.4787 44.7967 20.0717 44.661 19.771 44.529C19.4703 44.397 19.2137 44.1917 19.001 43.913C18.7883 43.6343 18.682 43.2567 18.682 42.78C18.682 42.384 18.7847 42.032 18.99 41.724C19.1953 41.4087 19.485 41.163 19.859 40.987C20.233 40.811 20.662 40.723 21.146 40.723C21.8573 40.723 22.4293 40.899 22.862 41.251C23.302 41.5957 23.555 42.043 23.621 42.593H22.785C22.7337 42.2777 22.5613 41.999 22.268 41.757C21.9747 41.5077 21.5787 41.383 21.08 41.383C20.618 41.383 20.233 41.5077 19.925 41.757C19.617 41.999 19.463 42.3327 19.463 42.758C19.463 43.0807 19.5473 43.341 19.716 43.539C19.8847 43.737 20.0937 43.8873 20.343 43.99C20.5997 44.0927 20.9443 44.2027 21.377 44.32C21.8757 44.4593 22.279 44.5987 22.587 44.738C22.895 44.87 23.1553 45.0753 23.368 45.354C23.5807 45.6327 23.687 46.0067 23.687 46.476C23.687 46.8353 23.5917 47.1763 23.401 47.499C23.2103 47.8217 22.928 48.082 22.554 48.28C22.18 48.478 21.7327 48.577 21.212 48.577ZM28.0349 42.384C28.4896 42.384 28.8966 42.4793 29.2559 42.67C29.6226 42.8607 29.9086 43.154 30.1139 43.55C30.3266 43.9387 30.4329 44.4153 30.4329 44.98V48.5H29.6739V45.068C29.6739 44.4153 29.5089 43.9167 29.1789 43.572C28.8563 43.2273 28.4126 43.055 27.8479 43.055C27.2686 43.055 26.8066 43.2383 26.4619 43.605C26.1173 43.9717 25.9449 44.5107 25.9449 45.222V48.5H25.1749V40.36H25.9449V43.517C26.1356 43.1577 26.4143 42.879 26.7809 42.681C27.1549 42.483 27.5729 42.384 28.0349 42.384ZM34.7649 48.588C34.2002 48.588 33.6905 48.4633 33.2359 48.214C32.7885 47.9573 32.4329 47.598 32.1689 47.136C31.9122 46.6667 31.7839 46.1203 31.7839 45.497C31.7839 44.8737 31.9159 44.331 32.1799 43.869C32.4439 43.3997 32.8032 43.0403 33.2579 42.791C33.7125 42.5343 34.2222 42.406 34.7869 42.406C35.3515 42.406 35.8612 42.5343 36.3159 42.791C36.7779 43.0403 37.1372 43.3997 37.3939 43.869C37.6579 44.331 37.7899 44.8737 37.7899 45.497C37.7899 46.113 37.6579 46.6557 37.3939 47.125C37.1299 47.5943 36.7669 47.9573 36.3049 48.214C35.8429 48.4633 35.3295 48.588 34.7649 48.588ZM34.7649 47.917C35.1609 47.917 35.5275 47.829 35.8649 47.653C36.2022 47.4697 36.4735 47.1983 36.6789 46.839C36.8915 46.4723 36.9979 46.025 36.9979 45.497C36.9979 44.969 36.8952 44.5253 36.6899 44.166C36.4845 43.7993 36.2132 43.528 35.8759 43.352C35.5385 43.1687 35.1719 43.077 34.7759 43.077C34.3799 43.077 34.0132 43.1687 33.6759 43.352C33.3385 43.528 33.0672 43.7993 32.8619 44.166C32.6639 44.5253 32.5649 44.969 32.5649 45.497C32.5649 46.025 32.6639 46.4723 32.8619 46.839C33.0672 47.1983 33.3349 47.4697 33.6649 47.653C34.0022 47.829 34.3689 47.917 34.7649 47.917ZM39.9525 43.814C40.1431 43.4107 40.4438 43.077 40.8545 42.813C41.2725 42.5417 41.7675 42.406 42.3395 42.406C42.8821 42.406 43.3698 42.5343 43.8025 42.791C44.2425 43.0403 44.5835 43.3997 44.8255 43.869C45.0748 44.331 45.1995 44.87 45.1995 45.486C45.1995 46.102 45.0748 46.6447 44.8255 47.114C44.5835 47.5833 44.2425 47.9463 43.8025 48.203C43.3698 48.4597 42.8821 48.588 42.3395 48.588C41.7748 48.588 41.2835 48.456 40.8655 48.192C40.4475 47.9207 40.1431 47.5833 39.9525 47.18V51.338H39.1935V42.494H39.9525V43.814ZM44.4185 45.486C44.4185 44.9873 44.3195 44.5583 44.1215 44.199C43.9308 43.8323 43.6668 43.5537 43.3295 43.363C42.9921 43.1723 42.6108 43.077 42.1855 43.077C41.7748 43.077 41.3971 43.176 41.0525 43.374C40.7151 43.572 40.4475 43.8543 40.2495 44.221C40.0515 44.5877 39.9525 45.013 39.9525 45.497C39.9525 45.981 40.0515 46.4063 40.2495 46.773C40.4475 47.1397 40.7151 47.422 41.0525 47.62C41.3971 47.818 41.7748 47.917 42.1855 47.917C42.6108 47.917 42.9921 47.8217 43.3295 47.631C43.6668 47.433 43.9308 47.1507 44.1215 46.784C44.3195 46.41 44.4185 45.9773 44.4185 45.486Z" fill="#5E7F87"/>
<defs>
<clipPath id="clip0_455_28406">
<rect width="24" height="24" fill="white" transform="translate(20 11.5)"/>
</clipPath>
</defs>
</svg>
