<svg width="48" height="16" viewBox="0 0 48 16" fill="none" xmlns="http://www.w3.org/2000/svg">
<path d="M5.06344 12.144C4.1781 12.144 3.3781 12.032 2.66344 11.808C1.94877 11.5733 1.3301 11.2373 0.807438 10.8L1.27144 9.744C1.81544 10.16 2.3861 10.4693 2.98344 10.672C3.58077 10.8747 4.2741 10.976 5.06344 10.976C6.02344 10.976 6.73277 10.8 7.19144 10.448C7.66077 10.0853 7.89544 9.61067 7.89544 9.024C7.89544 8.55467 7.72477 8.18133 7.38344 7.904C7.05277 7.62667 6.49277 7.408 5.70344 7.248L4.03944 6.912C3.03677 6.69867 2.28477 6.352 1.78344 5.872C1.29277 5.38133 1.04744 4.73067 1.04744 3.92C1.04744 3.248 1.2181 2.66133 1.55944 2.16C1.91144 1.65867 2.39677 1.26933 3.01544 0.992C3.6341 0.714666 4.34877 0.575999 5.15944 0.575999C5.91677 0.575999 6.62077 0.698666 7.27144 0.943999C7.9221 1.17867 8.47144 1.52 8.91944 1.968L8.45544 2.992C7.97544 2.55467 7.46877 2.24 6.93544 2.048C6.4021 1.84533 5.80477 1.744 5.14344 1.744C4.30077 1.744 3.62877 1.94133 3.12744 2.336C2.6261 2.72 2.37544 3.232 2.37544 3.872C2.37544 4.384 2.5301 4.78933 2.83944 5.088C3.15944 5.38667 3.67677 5.60533 4.39144 5.744L6.05544 6.096C7.13277 6.32 7.92744 6.66133 8.43944 7.12C8.9621 7.568 9.22344 8.18133 9.22344 8.96C9.22344 9.58933 9.05277 10.144 8.71144 10.624C8.38077 11.104 7.90077 11.4773 7.27144 11.744C6.65277 12.0107 5.91677 12.144 5.06344 12.144ZM10.9232 2.288V0.832H12.5232V2.288H10.9232ZM11.0832 12V4.224H12.3792V12H11.0832ZM18.2419 15.024C17.5699 15.024 16.9353 14.9333 16.3379 14.752C15.7513 14.5813 15.2286 14.32 14.7699 13.968L15.2019 13.024C15.6819 13.3653 16.1566 13.6107 16.6259 13.76C17.1059 13.9093 17.6233 13.984 18.1779 13.984C19.7139 13.984 20.4819 13.1947 20.4819 11.616V10.24C20.2579 10.7307 19.9059 11.12 19.4259 11.408C18.9566 11.6853 18.4179 11.824 17.8099 11.824C17.0953 11.824 16.4766 11.6587 15.9539 11.328C15.4313 10.9973 15.0259 10.544 14.7379 9.968C14.4606 9.38133 14.3219 8.704 14.3219 7.936C14.3219 7.168 14.4606 6.496 14.7379 5.92C15.0259 5.33333 15.4313 4.88 15.9539 4.56C16.4766 4.24 17.0953 4.08 17.8099 4.08C18.4179 4.08 18.9566 4.21867 19.4259 4.496C19.9059 4.77333 20.2579 5.152 20.4819 5.632V4.224H21.7459V11.44C21.7459 12.6347 21.4473 13.5307 20.8499 14.128C20.2633 14.7253 19.3939 15.024 18.2419 15.024ZM18.0499 10.768C18.7966 10.768 19.3886 10.512 19.8259 10C20.2633 9.488 20.4819 8.8 20.4819 7.936C20.4819 7.072 20.2633 6.38933 19.8259 5.888C19.3886 5.376 18.7966 5.12 18.0499 5.12C17.3139 5.12 16.7273 5.376 16.2899 5.888C15.8526 6.38933 15.6339 7.072 15.6339 7.936C15.6339 8.8 15.8526 9.488 16.2899 10C16.7273 10.512 17.3139 10.768 18.0499 10.768ZM24.1769 12V4.224H25.4409V5.552C25.6969 5.06133 26.0596 4.69333 26.5289 4.448C26.9983 4.20267 27.5263 4.08 28.1129 4.08C29.9583 4.08 30.8809 5.104 30.8809 7.152V12H29.5849V7.232C29.5849 6.50667 29.4409 5.97867 29.1529 5.648C28.8756 5.30667 28.4276 5.136 27.8089 5.136C27.0943 5.136 26.5236 5.36 26.0969 5.808C25.6809 6.24533 25.4729 6.832 25.4729 7.568V12H24.1769ZM37.2201 2.288V0.832H38.8201V2.288H37.2201ZM37.3801 12V4.224H38.6761V12H37.3801ZM41.0988 12V4.224H42.3628V5.552C42.6188 5.06133 42.9815 4.69333 43.4508 4.448C43.9201 4.20267 44.4481 4.08 45.0348 4.08C46.8801 4.08 47.8028 5.104 47.8028 7.152V12H46.5068V7.232C46.5068 6.50667 46.3628 5.97867 46.0748 5.648C45.7975 5.30667 45.3495 5.136 44.7308 5.136C44.0161 5.136 43.4455 5.36 43.0188 5.808C42.6028 6.24533 42.3948 6.832 42.3948 7.568V12H41.0988Z" fill="#282828"/>
</svg>
