<svg width="32" height="32" viewBox="0 0 32 32" fill="none" xmlns="http://www.w3.org/2000/svg">
<path d="M22.6668 8.66602L22.2616 6.84239C21.8167 4.84022 21.5942 3.83912 20.863 3.25258C20.1318 2.66602 19.1063 2.66602 17.0552 2.66602H14.9451C12.8941 2.66602 11.8686 2.66602 11.1373 3.25258C10.4061 3.83912 10.1837 4.84022 9.73875 6.84239L9.3335 8.66602" stroke="#003441" stroke-width="1.5"/>
<path d="M22.6668 23.334L22.2616 25.1576C21.8167 27.1599 21.5942 28.1609 20.863 28.7475C20.1318 29.334 19.1063 29.334 17.0552 29.334H14.9451C12.8941 29.334 11.8686 29.334 11.1373 28.7475C10.4061 28.1609 10.1837 27.1599 9.73875 25.1576L9.3335 23.334" stroke="#003441" stroke-width="1.5"/>
<path d="M26 16C26 21.5228 21.5228 26 16 26C10.4771 26 6 21.5228 6 16C6 10.4771 10.4771 6 16 6C21.5228 6 26 10.4771 26 16Z" fill="#D9E1E3" stroke="#003441" stroke-width="1.5"/>
<path d="M16 11.8965V15.9991L18.6667 18.5631" stroke="#003441" stroke-width="1.5" stroke-linecap="round" stroke-linejoin="round"/>
</svg>
